<svg width="50" height="40" viewBox="0 0 50 40" fill="none" xmlns="http://www.w3.org/2000/svg">
<g clip-path="url(#clip0_151_2048)">
<path d="M20.8506 35.2468C20.4783 35.2468 20.1623 35.2468 19.8464 35.2468C18.1764 35.2468 16.4951 35.2014 14.8252 35.2582C12.8844 35.3263 11.3724 33.8951 11.2596 32.0777C11.158 30.317 12.4331 28.8858 14.3625 28.6132C14.3964 28.6132 14.4302 28.5791 14.5205 28.5337C14.5205 28.3178 14.5205 28.0793 14.5205 27.8408C14.5318 24.115 14.419 20.3779 14.5882 16.6636C14.7688 12.438 16.9239 9.41656 20.7152 7.59913C21.0424 7.44011 21.1327 7.25836 21.1327 6.90624C21.1101 5.88393 21.1101 4.86163 21.1327 3.83932C21.1891 1.66976 22.8704 0 25.003 0C27.1243 0 28.8055 1.66976 28.8507 3.85068C28.8732 4.8957 28.862 5.92937 28.8507 6.97439C28.8507 7.28108 28.9297 7.44011 29.223 7.57642C33.3641 9.57559 35.4177 12.9265 35.4516 17.5155C35.4854 20.9573 35.4629 24.399 35.4629 27.8521C35.4629 28.0793 35.4629 28.3065 35.4629 28.5564C35.7224 28.6132 35.9593 28.6473 36.185 28.7041C37.7873 29.1016 38.8818 30.6124 38.7125 32.1912C38.5207 33.9405 37.2231 35.2014 35.4967 35.2241C33.6123 35.2468 31.7393 35.2354 29.8549 35.2354C29.6518 35.2354 29.4487 35.2354 29.1666 35.2354C29.1892 36.8825 28.7266 38.2796 27.35 39.2452C26.5488 39.8017 25.6574 40.0516 24.687 39.9721C23.5023 39.8699 22.5319 39.3474 21.7871 38.4273C21.0311 37.5299 20.8168 36.4508 20.8506 35.2468ZM22.8817 6.84944C23.1525 6.81537 23.3894 6.78129 23.6264 6.75857C23.7956 6.74721 23.9649 6.70178 24.1229 6.73585C24.5855 6.83808 24.8337 7.14478 24.8337 7.62185C24.8337 8.09893 24.4839 8.39426 23.8295 8.49649C19.316 9.20074 16.292 12.722 16.2808 17.3224C16.2695 20.8777 16.2808 24.4331 16.2808 27.9998C16.2808 28.1815 16.292 28.3633 16.3033 28.6132C17.0029 28.6132 17.6799 28.6132 18.3457 28.6132C19.034 28.6132 19.4402 28.9426 19.4402 29.4765C19.4402 30.0103 19.0452 30.3397 18.3457 30.3397C17.1045 30.3397 15.8633 30.3284 14.6221 30.3511C13.5727 30.3738 12.8844 31.1689 13.0085 32.1685C13.1101 32.975 13.7984 33.5089 14.7575 33.5089C19.9818 33.5089 25.2061 33.5089 30.4304 33.5089C32.0891 33.5089 33.7365 33.5202 35.3952 33.4975C36.264 33.4862 36.9072 32.8387 36.941 32.0095C36.9749 31.1349 36.3881 30.4533 35.508 30.3511C35.3049 30.3284 35.0905 30.3397 34.8874 30.3397C31.1638 30.3397 27.4402 30.3397 23.7166 30.3397C23.5135 30.3397 23.2991 30.3625 23.096 30.317C22.656 30.2034 22.4303 29.9081 22.4416 29.4537C22.4529 29.0221 22.6898 28.7495 23.1073 28.6473C23.2879 28.6018 23.4797 28.6245 23.6715 28.6245C26.7971 28.6245 29.9113 28.6245 33.0369 28.6245C33.24 28.6245 33.4318 28.6245 33.6462 28.6245C33.6575 28.4542 33.6801 28.3633 33.6801 28.2724C33.6801 24.4672 33.6913 20.6619 33.6688 16.8567C33.6575 15.2437 33.161 13.767 32.2922 12.4267C31.2202 10.7683 29.7646 9.60967 27.9141 8.93949C27.1469 8.66687 27.0679 8.43969 27.0904 7.69C27.1356 6.34965 27.1581 4.99794 27.0792 3.65758C27.0227 2.56712 26.0523 1.74928 24.9917 1.73792C23.931 1.72656 22.9606 2.53304 22.8817 3.63486C22.814 4.67988 22.8817 5.73627 22.8817 6.84944ZM22.6673 35.2809C22.4754 36.4054 22.8478 37.3255 23.6941 37.8707C24.5291 38.4046 25.5333 38.3932 26.3457 37.8253C27.1581 37.2573 27.5192 36.3145 27.3048 35.2809C25.759 35.2809 24.2131 35.2809 22.6673 35.2809Z" fill="#2EAF00"/>
<path d="M49.9999 28.5223C49.9548 28.9994 49.9209 29.6582 49.8419 30.317C49.7629 31.0667 49.4019 31.4188 48.849 31.3507C48.2961 31.2825 48.0366 30.8736 48.1381 30.1012C48.4089 27.9771 48.1945 25.9097 47.4498 23.9106C46.66 21.7751 45.3623 19.9917 43.6247 18.5378C42.9138 17.9471 42.7784 17.5041 43.1621 17.0271C43.5457 16.5613 44.0422 16.6068 44.7192 17.1861C48.1494 20.1053 49.8983 23.8311 49.9999 28.5223Z" fill="#2EAF00"/>
<path d="M1.85555 26.5687C1.60731 28.1476 1.6863 29.8288 2.10379 31.4758C2.78081 34.1565 4.20254 36.3829 6.30129 38.1662C6.40284 38.2571 6.50439 38.3252 6.60594 38.4161C7.01215 38.791 7.06857 39.3021 6.76391 39.6769C6.44797 40.0631 5.94021 40.1199 5.51144 39.7565C4.93597 39.268 4.36051 38.7796 3.85275 38.223C0.794895 34.8494 -0.423732 30.8851 0.129164 26.3643C0.196865 25.7963 0.569224 25.4556 1.04313 25.4896C1.5509 25.5124 1.86684 25.9099 1.85555 26.5687Z" fill="#2EAF00"/>
<path d="M45.7802 28.8293C45.7012 30.9193 44.7308 32.998 42.5982 34.4406C42.3387 34.611 41.8648 34.6337 41.5714 34.5201C41.357 34.4406 41.1652 34.0089 41.1765 33.7477C41.1878 33.5091 41.4135 33.2024 41.6391 33.0434C44.8662 30.6694 44.8662 26.1145 41.6391 23.7291C41.1201 23.3429 40.996 22.8545 41.3006 22.4228C41.594 22.0025 42.0679 21.9571 42.5982 22.2752C44.5277 23.4678 45.7802 25.8873 45.7802 28.8293Z" fill="#2EAF00"/>
<path d="M8.03891 21.9453C8.28715 22.1498 8.63694 22.2974 8.71592 22.536C8.81748 22.8086 8.71593 23.1721 8.62566 23.4674C8.58052 23.6151 8.35485 23.7173 8.20816 23.8195C5.21801 25.9777 5.18416 30.6576 8.15174 32.8613C8.88518 33.4065 9.04315 33.8609 8.68207 34.338C8.321 34.8037 7.81324 34.7696 7.10237 34.2584C3.20952 31.3846 3.29979 25.0917 7.28291 22.3656C7.47473 22.2179 7.72297 22.1157 8.03891 21.9453Z" fill="#2EAF00"/>
<path d="M7.14808 17.5387C6.94498 17.8454 6.84342 18.1294 6.64032 18.2884C4.94778 19.6629 3.65017 21.344 2.74748 23.3432C2.52181 23.8543 2.02533 24.002 1.57399 23.7748C1.15649 23.5703 0.975956 23.1046 1.19034 22.6162C2.1833 20.3444 3.63888 18.4247 5.61351 16.9254C5.8279 16.755 6.26796 16.7209 6.53877 16.8231C6.77572 16.9254 6.93369 17.2661 7.14808 17.5387Z" fill="#2EAF00"/>
<path d="M47.8221 32.8271C48.7022 32.8385 49.0746 33.4746 48.7925 34.1334C48.1719 35.5646 47.3482 36.8709 46.2988 38.0182C45.7459 38.6088 45.1479 39.1541 44.5386 39.6993C44.076 40.1082 43.5795 40.0741 43.241 39.6879C42.8912 39.2904 42.9702 38.7565 43.4554 38.3589C45.0915 37.0186 46.3327 35.3943 47.2241 33.4632C47.3482 33.1679 47.6867 32.9635 47.8221 32.8271Z" fill="#2EAF00"/>
<path d="M31.0165 23.6375C31.0165 24.2282 31.0278 24.8075 31.0165 25.3982C31.0052 25.9661 30.6554 26.3296 30.1815 26.3409C29.6738 26.3523 29.3014 25.9661 29.3014 25.3754C29.2901 24.2055 29.2901 23.0355 29.3014 21.8542C29.3127 21.2522 29.6512 20.8887 30.1703 20.8887C30.6893 20.8887 31.0052 21.2522 31.0165 21.8769C31.0278 22.4676 31.0165 23.0582 31.0165 23.6375Z" fill="#2EAF00"/>
<path d="M31.005 17.3224C31.005 17.6291 31.0276 17.9245 31.005 18.2312C30.9599 18.7196 30.6101 19.049 30.1701 19.0604C29.73 19.0604 29.3351 18.731 29.3125 18.2539C29.2786 17.6291 29.2786 17.0044 29.3125 16.3797C29.3351 15.8912 29.7074 15.5732 30.1588 15.5618C30.644 15.5504 30.9825 15.8799 31.0163 16.4137C31.0276 16.7204 31.005 17.0158 31.005 17.3224Z" fill="#2EAF00"/>
</g>
<defs>
<clipPath id="clip0_151_2048">
<rect width="50" height="40" fill="white"/>
</clipPath>
</defs>
</svg>
