<svg width="50" height="40" viewBox="0 0 50 40" fill="none" xmlns="http://www.w3.org/2000/svg">
<path d="M15.5411 32.5008C15.4796 31.8672 15.3389 31.2597 15.4005 30.6782C15.5148 29.6021 16.1829 28.8904 17.2378 28.5953C17.5543 28.5085 17.7125 28.3436 17.8883 28.092C18.4685 27.2241 19.0575 26.3562 19.6993 25.5317C20.6487 24.308 21.5366 23.0496 21.8531 21.5048C21.9849 20.8452 22.0816 20.1595 22.0729 19.4826C22.0641 17.8857 21.9849 16.2801 21.9322 14.7006C20.0949 14.2146 19.2158 13.2773 19.163 11.8366C19.1103 10.4133 19.9191 9.35444 21.5278 8.81636C20.2619 7.25417 19.8136 5.51841 20.4553 3.59172C20.8421 2.42876 21.5806 1.50881 22.6267 0.840546C24.6838 -0.469952 27.3826 -0.226946 29.1584 1.42202C30.2134 2.39405 30.7848 3.60908 30.8551 5.02372C30.9254 6.43837 30.4419 7.68811 29.4837 8.80768C30.3804 9.05936 31.0661 9.51934 31.5056 10.2918C31.8309 10.8559 31.9188 11.4547 31.8573 12.0883C31.7254 13.3727 30.8287 14.2406 29.1321 14.6919C29.0793 16.9571 28.7013 19.2309 29.176 21.5048C29.4749 22.9107 30.2397 24.0824 31.0925 25.2193C31.8397 26.2173 32.5342 27.2501 33.2638 28.2655C33.343 28.3697 33.466 28.4912 33.5803 28.5172C35.4001 28.8991 36.1649 30.8431 35.3825 32.3619C35.3737 32.388 35.3737 32.414 35.3649 32.4747C35.4792 32.5442 35.6023 32.6136 35.7165 32.6917C37.1671 33.6117 37.9231 34.9222 37.9934 36.6232C38.0022 36.9443 38.0022 37.2568 37.9934 37.5779C37.9846 39.0272 37.044 39.9819 35.5759 39.9819C32.8507 39.9906 30.1254 39.9819 27.4002 39.9819C23.4882 39.9819 19.5762 39.9472 15.6642 39.9993C13.9587 40.034 12.9741 38.845 13.0005 37.3696C13.0269 35.9115 13.2555 34.575 14.328 33.4988C14.706 33.1083 15.1719 32.7959 15.5411 32.5008ZM27.3035 14.7353C27.242 14.7093 27.198 14.6832 27.1629 14.6659C26.5563 14.4836 26.3101 14.1625 26.3717 13.6504C26.4332 13.1644 26.8112 12.8954 27.4266 12.8867C27.8661 12.8867 28.3057 12.8867 28.7452 12.8867C29.5276 12.878 30.0551 12.4181 30.0639 11.7411C30.0727 11.0728 29.5364 10.5608 28.7716 10.5521C26.5914 10.5434 24.4025 10.5434 22.2223 10.5521C21.4663 10.5521 20.9212 11.0815 20.9388 11.7498C20.9564 12.4094 21.4839 12.878 22.2311 12.8867C23.1102 12.8954 23.9893 12.8867 24.8684 12.8867C25.5014 12.8954 25.8882 13.2425 25.8882 13.7806C25.8882 14.31 25.5014 14.6572 24.8596 14.6745C24.4816 14.6832 24.1124 14.6745 23.6992 14.6745C23.7519 16.0024 23.8047 17.2695 23.8662 18.5453C23.9805 21.1229 23.4355 23.5182 21.8531 25.6185C21.2553 26.417 20.6399 27.2154 20.0333 28.0138C19.9366 28.144 19.8575 28.2916 19.7344 28.4912C19.9982 28.4912 20.174 28.4912 20.341 28.4912C21.0091 28.4999 21.4047 28.8297 21.3959 29.3851C21.3872 29.9232 21.0004 30.253 20.3586 30.253C19.585 30.2617 18.8026 30.2443 18.029 30.253C17.4664 30.2617 17.1587 30.5567 17.1411 31.0514C17.1235 31.5982 17.396 31.9019 17.9762 31.9627C18.196 31.9887 18.4158 31.9887 18.6356 31.9887C22.2399 31.9887 25.8442 31.9887 29.4485 31.9887C30.3013 31.9887 30.7232 32.3012 30.7144 32.9087C30.7056 33.4988 30.2925 33.7852 29.4573 33.7852C25.5717 33.7852 21.6948 33.7852 17.8092 33.7852C16.3851 33.7852 15.2071 34.6965 14.917 36.0417C14.8291 36.4583 14.8466 36.9009 14.8378 37.3349C14.8291 38.1333 14.917 38.2114 15.7082 38.2114C21.7476 38.2114 27.7782 38.2114 33.8177 38.2114C34.4067 38.2114 34.9869 38.2114 35.5759 38.2114C35.9715 38.2114 36.1737 38.0205 36.1737 37.63C36.1737 37.2568 36.1825 36.8749 36.1561 36.5017C36.0594 34.9656 34.8374 33.8113 33.2814 33.7766C32.9474 33.7679 32.6045 33.7766 32.2704 33.7766C31.6023 33.7679 31.1979 33.4381 31.1979 32.8913C31.1892 32.3272 31.5935 31.9974 32.288 31.9801C32.5781 31.9714 32.877 31.9801 33.1671 31.9367C33.6067 31.8672 33.8528 31.5635 33.8616 31.1209C33.8704 30.5394 33.5451 30.2443 32.8682 30.2443C30.5122 30.2443 28.1475 30.2443 25.7915 30.2443C25.4222 30.2443 25.0354 30.2009 24.886 29.8451C24.7717 29.5847 24.7541 29.2289 24.8332 28.9512C24.9387 28.6127 25.2728 28.4738 25.642 28.4825C27.3387 28.4825 29.0441 28.4825 30.7408 28.4825C30.8903 28.4825 31.0397 28.4825 31.3298 28.4825C30.7496 27.7274 30.2837 27.0592 29.7562 26.443C27.787 24.1084 26.9343 21.4266 27.1277 18.3977C27.2156 17.1827 27.2508 15.959 27.3035 14.7353ZM29.0354 5.30145C29.0441 3.3574 27.4618 1.78653 25.5101 1.77786C23.5498 1.77786 21.9674 3.34004 21.9674 5.28409C21.9674 7.21946 23.5585 8.79032 25.5189 8.78164C27.453 8.78164 29.0266 7.21946 29.0354 5.30145Z" fill="#2EAF00"/>
<path d="M23.1365 28.4915C24.0859 28.3961 24.42 29.2726 24.1035 29.8107C23.8661 30.2186 23.4705 30.262 23.0398 30.262C22.6442 30.262 22.3277 30.1318 22.1255 29.7847C21.8178 29.2379 22.1958 28.3787 23.1365 28.4915Z" fill="#2EAF00"/>
</svg>
