<svg width="36" height="30" viewBox="0 0 36 30" fill="none" xmlns="http://www.w3.org/2000/svg">
<g clip-path="url(#clip0_137_358)">
<path d="M17.8022 4.54931C18.4638 3.87261 19.0653 3.21848 19.7044 2.60194C22.9826 -0.548441 28.0653 -0.781523 31.6292 2.03803C35.8698 5.39893 36.3135 11.6019 32.5616 15.4967C30.4939 17.6395 28.3586 19.7222 26.2533 21.835C23.6894 24.4065 21.118 26.9779 18.5465 29.5418C17.9601 30.1283 17.6217 30.1283 17.0353 29.5418C12.4563 24.9779 7.88487 20.4065 3.30593 15.8425C1.28337 13.8275 0.328481 11.414 0.478857 8.55683C0.681865 4.52675 3.96006 0.850056 7.95254 0.225996C11.133 -0.270245 13.8698 0.609455 16.148 2.88013C16.6819 3.41397 17.2082 3.9478 17.8022 4.54931ZM17.8322 28.1659C17.9375 28.0305 18.0127 27.9102 18.1104 27.8125C20.1631 25.7523 22.2157 23.6997 24.2759 21.6395C26.6142 19.3012 28.9601 16.9704 31.2834 14.617C33.336 12.5418 34.0428 10.0456 33.2984 7.23352C31.8097 1.66209 24.9225 -0.247688 20.7495 3.73728C19.9826 4.47412 19.2383 5.24104 18.4864 5.99292C17.9676 6.50419 17.5992 6.50419 17.0804 5.9854C16.3285 5.23352 15.5916 4.4666 14.8172 3.72976C11.4638 0.564342 6.19314 1.02299 3.47134 4.7072C1.2157 7.75983 1.56156 11.9027 4.32848 14.6771C8.71946 19.0756 13.118 23.4666 17.5089 27.8651C17.5916 27.9403 17.6744 28.0155 17.8322 28.1659Z" fill="#2EAF00"/>
<path d="M20.0804 16.4816C20.3887 15.9027 20.6669 15.3613 20.9526 14.8275C21.1781 14.3989 21.4037 13.9628 21.6368 13.5342C21.8022 13.2184 22.0578 13.0605 22.4263 13.0605C23.727 13.0681 25.0278 13.0605 26.336 13.0681C26.8172 13.0681 27.1481 13.3914 27.1556 13.8199C27.1631 14.2636 26.8172 14.5869 26.321 14.5944C25.2684 14.6019 24.2157 14.6019 23.1631 14.5869C22.915 14.5869 22.7872 14.6545 22.6669 14.8801C22.0804 16.023 21.4714 17.1583 20.8774 18.3087C20.7045 18.6395 20.5015 18.9026 20.0879 18.9026C19.6744 18.9026 19.4714 18.632 19.2984 18.3087C18.7195 17.2184 18.133 16.1207 17.5466 15.0305C17.3812 14.7297 17.336 14.3989 17.5842 14.1583C17.7646 13.9929 18.0729 13.835 18.2909 13.8726C18.5165 13.9027 18.7796 14.1282 18.9 14.3387C19.3135 15.0079 19.6744 15.7297 20.0804 16.4816Z" fill="#2EAF00"/>
<path d="M15.4714 11.1586C14.9601 12.1286 14.4714 13.0233 14.0127 13.9406C13.7872 14.3992 13.4714 14.6022 12.9526 14.5947C11.712 14.5647 10.4714 14.5947 9.23079 14.5797C8.62928 14.5722 8.25334 14.0609 8.46387 13.5421C8.60673 13.1812 8.89244 13.0534 9.26838 13.0534C10.2834 13.0609 11.2985 13.0459 12.3135 13.0609C12.6067 13.0684 12.7797 12.9857 12.9225 12.7075C13.4939 11.5647 14.1105 10.4444 14.6969 9.31654C14.8624 8.99324 15.0804 8.75264 15.4639 8.74512C15.8473 8.74512 16.0654 8.98572 16.2383 9.30903C16.7195 10.2188 17.2082 11.1135 17.6894 12.0233C17.9526 12.512 17.8473 12.9707 17.4338 13.1887C17.0203 13.4068 16.5992 13.2413 16.3285 12.7376C16.0503 12.2338 15.7797 11.7301 15.4714 11.1586Z" fill="#2EAF00"/>
</g>
<defs>
<clipPath id="clip0_137_358">
<rect width="34.7368" height="30" fill="white" transform="translate(0.423218)"/>
</clipPath>
</defs>
</svg>
