<svg width="50" height="40" viewBox="0 0 50 40" fill="none" xmlns="http://www.w3.org/2000/svg">
<path d="M25.4346 29.3166C26.8271 28.0025 28.2017 26.7335 29.5403 25.4285C30.25 24.7265 30.8969 23.9525 31.5797 23.2325C31.6605 23.1425 31.8761 23.1065 31.9929 23.1425C32.6757 23.3675 33.3675 23.5655 34.0144 23.8715C36.0627 24.8525 38.1021 25.8695 39.9439 27.2195C40.0247 27.2825 40.1056 27.3455 40.1954 27.4085C42.2618 28.8846 43.1781 30.8646 42.9715 33.4206C42.8637 34.7167 42.8996 36.0307 42.8727 37.3357C42.8457 39.0187 41.8575 39.9998 40.1685 39.9998C30.3758 39.9998 20.5921 39.9998 10.7995 39.9998C9.02959 39.9998 8.05931 39.0187 8.05032 37.2457C8.04134 35.8237 8.05931 34.3927 8.0054 32.9706C7.92454 30.7476 8.75108 28.9926 10.512 27.6335C12.7849 25.8785 15.3185 24.6095 17.9059 23.4305C17.9328 23.4215 17.9598 23.4035 17.9867 23.3945C18.3281 23.2955 18.7055 23.0525 19.0109 23.1245C19.2894 23.1875 19.4691 23.5925 19.7117 23.8355C21.3198 25.3835 22.928 26.9315 24.5361 28.4796C24.8057 28.7406 25.0932 29.0016 25.4346 29.3166ZM36.6647 30.2886C36.7904 30.4236 36.8893 30.5316 36.9881 30.6396C38.0662 31.7556 38.2189 33.5916 37.3385 34.9237C36.5299 36.1477 34.8679 36.6517 33.4304 36.1207C31.9121 35.5537 31.0137 33.9967 31.2922 32.4306C31.5976 30.7206 32.9093 29.5686 34.5893 29.5866C34.9218 29.5866 35.0835 29.4876 35.1733 29.1906C35.3979 28.5066 35.6315 27.8315 35.8381 27.1385C35.8741 27.0305 35.8022 26.7965 35.7124 26.7515C34.6972 26.2475 33.664 25.7615 32.6308 25.2935C32.514 25.2395 32.2804 25.3025 32.1816 25.4015C30.1512 27.3095 28.1388 29.2356 26.1263 31.1616C25.9107 31.3686 25.767 31.6386 25.5783 31.8816C23.2604 29.6586 21.0773 27.5705 18.9031 25.4645C18.6785 25.2485 18.5078 25.1585 18.2113 25.3205C17.6543 25.6175 17.0793 25.8695 16.5313 26.1755C16.4235 26.2385 16.3157 26.4545 16.3337 26.5805C16.3965 27.0395 16.5044 27.4895 16.6391 27.9395C16.6751 28.0565 16.8817 28.2006 17.0075 28.2006C18.8402 28.1465 20.2687 29.4966 20.6999 30.8466C21.1222 32.1786 21.4007 33.5646 21.7511 34.9687C20.8616 35.1667 20.0171 35.3647 19.1726 35.5447C18.6246 35.6617 18.2203 35.3917 18.0945 34.8607C17.9867 34.4017 18.2293 34.0147 18.7594 33.8527C19.0289 33.7717 19.2984 33.6997 19.6129 33.6186C19.4601 32.9706 19.3164 32.3406 19.1637 31.7196C18.8672 30.5226 17.7262 29.8476 16.4145 30.0816C15.3544 30.2706 14.5009 31.3866 14.6536 32.5026C14.7525 33.2046 14.9591 33.8977 15.1298 34.6267C15.5071 34.5457 15.8395 34.4557 16.1809 34.4197C16.6032 34.3747 16.9356 34.6267 17.0614 35.0317C17.1871 35.4727 17.0524 35.9137 16.6301 36.0397C15.7317 36.3007 14.8153 36.4897 13.863 36.7237C13.5486 35.3017 13.1982 33.9697 12.9556 32.6196C12.731 31.3506 13.1802 30.2526 14.0787 29.3526C14.3661 29.0556 14.7255 28.8306 15.0579 28.5606C14.9232 28.0925 14.7794 27.6065 14.6267 27.0845C13.1533 27.9035 11.8057 28.8396 10.6737 30.0546C10.1796 30.5856 9.87409 31.2156 9.86511 31.9536C9.83816 33.6817 9.82917 35.4007 9.82019 37.1287C9.8112 38.1097 10.0268 38.3257 10.9971 38.3257C16.1809 38.3257 21.3558 38.3257 26.5396 38.3257C31.1035 38.3257 35.6764 38.3257 40.2403 38.3257C40.9141 38.3257 41.1837 38.1007 41.1837 37.5247C41.1927 35.7517 41.1927 33.9877 41.1657 32.2146C41.1567 31.8366 41.0669 31.4316 40.9141 31.0896C40.2314 29.5506 38.8119 28.7766 37.5541 27.7865C37.2307 28.6416 36.9432 29.4606 36.6647 30.2886ZM36.1436 32.9346C36.1705 32.0076 35.5147 31.3326 34.5624 31.2966C33.7179 31.2696 32.9812 31.9716 32.9542 32.8266C32.9273 33.7447 33.6011 34.4647 34.5175 34.5007C35.3799 34.5187 36.1166 33.8167 36.1436 32.9346Z" fill="#2EAF00"/>
<path d="M17.6365 10.1105C17.5556 9.30945 17.4029 8.53544 17.4119 7.76142C17.4119 6.78041 17.4748 5.79039 17.6365 4.81837C17.7712 3.96336 18.2743 3.29734 19.1009 2.89234C19.4243 2.73033 19.7567 2.47833 19.9454 2.18132C20.754 0.849301 22.0027 0.300291 23.4761 0.120288C25.785 -0.167717 28.0311 0.0572868 30.2322 0.840301C32.9813 1.82132 34.6164 4.53037 34.1762 7.49142C34.0684 8.22943 33.9426 8.96744 33.8258 9.70546C33.7899 9.95746 33.8348 10.1375 34.0863 10.2995C34.6613 10.6775 34.9578 11.2355 34.9488 11.9375C34.9398 12.5495 34.9218 13.1615 34.859 13.7735C34.7422 14.9706 34.2301 15.9696 33.3047 16.7616C33.0621 16.9686 32.8825 17.3016 32.7836 17.6166C31.9391 20.2536 30.2501 22.0627 27.6447 23.0437C24.2937 24.3127 20.6551 22.1797 19.1638 19.5156C18.7505 18.7776 18.4989 17.9496 18.1665 17.1666C18.1126 17.0406 18.0497 16.8696 17.9419 16.8066C16.783 16.1136 16.3787 14.9976 16.2529 13.7465C16.199 13.2425 16.1721 12.7295 16.1631 12.2255C16.1631 10.9925 16.4685 10.5425 17.6365 10.1105ZM17.9689 11.8205C18.454 12.1355 18.2564 12.6485 18.3193 13.1075C18.3732 13.5395 18.3732 13.9895 18.5079 14.3945C18.6337 14.7635 18.8224 15.2046 19.1278 15.3936C19.7837 15.7986 20.0352 16.3746 20.2149 17.0586C20.6821 18.7776 21.6613 20.1366 23.2156 21.0367C23.548 21.2257 23.9433 21.3247 24.2757 21.5137C25.0573 21.9547 25.8569 22.0177 26.6834 21.6847C27.0608 21.5407 27.4381 21.3967 27.7885 21.1987C29.4146 20.2896 30.5196 18.9216 31.0946 17.1666C31.3192 16.4826 31.6067 15.9156 32.1368 15.4296C32.4243 15.1596 32.7567 14.8355 32.8465 14.4755C33.0262 13.7375 33.0711 12.9725 33.125 12.2165C33.134 12.0815 32.9633 11.8655 32.8286 11.8115C32.0739 11.5145 31.7954 11.0645 31.9391 10.2815C32.1008 9.39945 32.2626 8.51744 32.4153 7.63542C32.8465 5.12438 31.7595 3.28834 29.3787 2.41533C27.6627 1.78532 25.9108 1.68632 24.114 1.83032C22.991 1.92032 22.0117 2.27133 21.284 3.23434C20.9246 3.72035 20.3587 4.07136 19.8376 4.40436C19.4962 4.62037 19.2356 4.85437 19.1548 5.23238C19.0829 5.54738 19.011 5.88939 19.029 6.2044C19.1099 7.47342 19.2177 8.74244 19.3345 10.0025C19.4513 11.2625 19.2536 11.5415 18.0497 11.7305C18.0318 11.7395 18.0228 11.7575 17.9689 11.8205Z" fill="#2EAF00"/>
</svg>
