<svg width="26" height="32" viewBox="0 0 26 32" fill="none" xmlns="http://www.w3.org/2000/svg">
<g clip-path="url(#clip0_132_37)">
<path d="M3.35928 30.9405C3.18087 30.7092 2.99585 30.478 2.79761 30.2269C3.43858 29.6982 4.13902 29.3084 4.87911 28.9978C5.58616 28.707 6.31964 28.4692 7.05312 28.2247C7.25796 28.1586 7.35047 28.0859 7.35047 27.848C7.33726 26.6916 7.33726 25.5352 7.35047 24.3788C7.35047 24.1608 7.291 24.0881 7.06633 24.0485C4.40995 23.6255 2.48043 22.2775 1.62801 19.6344C1.24475 18.4449 1.28439 17.2291 1.51567 16.0132C1.97162 13.5551 2.69188 11.1894 3.88792 8.98238C4.3703 8.07709 4.9518 7.23789 5.75796 6.57709C7.07294 5.49339 8.58616 5.48018 9.91435 6.55727C10.7271 7.21145 11.302 8.05727 11.791 8.96255C12.8549 10.9449 13.4958 13.0793 13.9782 15.2665C14.1897 16.2445 14.3417 17.2291 14.3152 18.2401C14.2425 21.207 12.2205 23.5264 9.2932 23.9956C9.18748 24.0154 9.07514 24.0352 8.96942 24.0551C8.30202 24.1476 8.30202 24.141 8.30202 24.8216C8.30202 25.7136 8.30202 26.6057 8.30202 27.4978C8.30202 27.6167 8.30202 27.7357 8.30202 27.9075C11.1963 27.3392 14.0707 27.2996 16.9848 27.7291C16.9848 26.5066 16.9848 25.3106 16.9848 24.0683C15.6963 24.6828 14.3813 24.7951 13.0003 24.2863C13.1192 23.989 13.2249 23.7114 13.3108 23.5C13.9386 23.5462 14.5135 23.6255 15.0884 23.6189C15.7029 23.6189 16.2778 23.3877 16.78 23.044C16.8989 22.9648 16.9452 22.7665 17.0179 22.6277C17.0245 22.6079 17.0179 22.5815 17.0179 22.5617C17.1038 22.0661 16.9254 21.7489 16.4628 21.511C15.9738 21.2599 15.5311 20.9229 15.0751 20.6189C14.7778 20.4207 14.6985 20.1696 14.8505 19.9185C15.0025 19.6674 15.2932 19.6211 15.5972 19.8128C16.0465 20.0969 16.4958 20.3943 17.0179 20.7247C17.0179 20.2423 17.0179 19.8392 17.0179 19.4427C17.0179 18.7819 17.0179 18.1211 17.0179 17.4603C17.0179 17.0705 17.1831 16.8722 17.487 16.8722C17.7976 16.8722 17.9562 17.0639 17.9562 17.4537C17.9628 18.0022 17.9562 18.5507 17.9562 19.152C18.1214 19.0991 18.2337 19.0661 18.3395 19.0264C18.7359 18.8678 19.1324 18.696 19.5355 18.5507C19.8064 18.4515 20.0773 18.5771 20.1699 18.815C20.2624 19.0661 20.1632 19.3172 19.8857 19.4361C19.3505 19.6674 18.8086 19.8855 18.2668 20.0903C18.0553 20.1696 17.9496 20.2687 17.9562 20.5198C17.976 21.2137 17.9694 21.9075 17.9562 22.6013C17.9562 22.8128 18.0355 22.9383 18.2139 23.0507C20.5399 24.5507 23.7051 23.0837 24.0487 20.3348C24.2668 18.5639 23.3483 16.9648 21.6963 16.2907C21.4584 16.1916 21.3725 16.0529 21.3262 15.815C20.9562 14.0639 19.6941 12.8084 18.0025 12.5308C17.0972 12.3789 16.258 12.6101 15.4848 13.0991C15.3989 13.152 15.3196 13.2115 15.2139 13.2775C15.0223 13.033 14.8306 12.7952 14.6258 12.5308C15.6302 11.7775 16.7271 11.4009 17.9496 11.5595C20.0641 11.8238 21.3989 13.0727 22.106 15.0418C22.2051 15.326 22.3373 15.5176 22.6148 15.6696C24.3923 16.6476 25.3637 18.7225 24.9738 20.6718C24.5575 22.7731 22.9254 24.3392 20.8571 24.5771C19.8725 24.6894 18.9276 24.5308 17.9958 24.0418C17.9826 24.1674 17.9628 24.2599 17.9628 24.3458C17.9628 25.4361 17.9694 26.5264 17.9562 27.6167C17.9562 27.8546 18.0421 27.9339 18.2602 27.9868C20.0443 28.3899 21.7492 28.978 23.2492 30.0551C23.302 30.0947 23.3549 30.1344 23.4408 30.2004C23.3483 30.326 23.2558 30.4449 23.1632 30.5573C23.0707 30.6762 22.9716 30.7951 22.8923 30.9009C22.2646 30.5573 21.6699 30.1806 21.0355 29.8899C19.3835 29.1299 17.6258 28.7004 15.8218 28.5551C14.5003 28.4493 13.1588 28.3833 11.8373 28.4361C9.3725 28.5352 6.96721 28.9978 4.74034 30.1277C4.27779 30.3656 3.84827 30.6498 3.35928 30.9405ZM8.30202 23.163C8.67206 23.1101 8.97602 23.0837 9.27338 23.0176C11.2756 22.5683 12.6632 21.4449 13.1787 19.4031C13.4694 18.2599 13.3637 17.1101 13.1324 15.967C12.6765 13.6938 12.0421 11.4802 10.9386 9.42511C10.5091 8.62555 10.0135 7.87225 9.2932 7.29736C8.30862 6.51101 7.32404 6.52423 6.35268 7.3304C5.6258 7.93172 5.10378 8.69824 4.67426 9.51762C3.44519 11.8833 2.64563 14.4009 2.34166 17.0573C2.01787 19.8656 3.59056 22.1652 6.30642 22.9251C6.63021 23.0176 6.96061 23.0573 7.34387 23.1366C7.34387 22.337 7.33065 21.5969 7.35047 20.8634C7.35708 20.5991 7.26457 20.4405 7.06633 20.2819C6.04871 19.4559 5.0377 18.6233 4.03329 17.7841C3.93417 17.7048 3.78219 17.5925 3.78219 17.4934C3.78219 17.3084 3.81523 17.0705 3.92757 16.9383C4.10598 16.7401 4.35047 16.8062 4.54871 16.9714C5.36809 17.6454 6.18087 18.3128 7.00025 18.9868C7.08616 19.0595 7.18528 19.1255 7.291 19.2048C7.31743 19.1388 7.33726 19.1057 7.33726 19.0793C7.33726 18.2533 7.35047 17.4273 7.33065 16.6013C7.33065 16.4824 7.21832 16.3436 7.1192 16.2643C6.56413 15.7952 6.00246 15.3326 5.44078 14.87C5.05091 14.5463 4.9584 14.2687 5.16986 14.0176C5.39453 13.7599 5.63902 13.7929 6.05532 14.13C6.4584 14.4603 6.86149 14.7907 7.33065 15.1806C7.33065 14.9692 7.33065 14.8502 7.33065 14.7313C7.33065 13.9515 7.32404 13.1652 7.33065 12.3855C7.33065 11.989 7.51567 11.7709 7.82624 11.7841C8.1236 11.7907 8.28219 12.0022 8.2888 12.3855C8.2888 13.1982 8.2888 14.0176 8.2888 14.8304C8.2888 14.9229 8.30202 15.0088 8.31523 15.1608C8.80422 14.7577 9.24695 14.3943 9.68968 14.0308C9.99365 13.7863 10.2514 13.7863 10.4496 14.011C10.6478 14.2357 10.595 14.5264 10.291 14.7775C9.68968 15.2797 9.08175 15.7687 8.49365 16.2775C8.38792 16.37 8.30202 16.5485 8.30202 16.6938C8.28219 17.4537 8.29541 18.2137 8.29541 18.9736C8.29541 19.0463 8.30862 19.1123 8.32845 19.2379C8.48043 19.1189 8.58616 19.033 8.69849 18.9405C9.4518 18.3194 10.2117 17.6916 10.965 17.0705C11.0311 17.0176 11.0972 16.9515 11.1765 16.9119C11.4077 16.7731 11.6258 16.7996 11.7976 17.0044C11.9694 17.2092 11.9562 17.4273 11.7844 17.6322C11.7183 17.7048 11.639 17.7643 11.5597 17.8304C10.5487 18.663 9.5377 19.4956 8.52669 20.3348C8.43417 20.4141 8.30862 20.533 8.30862 20.6388C8.29541 21.4515 8.30202 22.2775 8.30202 23.163Z" fill="#2EAF00" stroke="#2EAF00" stroke-width="0.5"/>
<path d="M17.3483 5.69212C17.3615 4.46304 18.3461 3.50489 19.5818 3.52472C20.7778 3.54454 21.7293 4.54895 21.7095 5.7648C21.6897 6.95423 20.7117 7.89917 19.5091 7.89256C18.2932 7.88595 17.3351 6.91458 17.3483 5.69212ZM20.7448 5.71855C20.7448 5.04454 20.2161 4.50269 19.5421 4.49608C18.8549 4.48947 18.2932 5.03793 18.2932 5.71194C18.2932 6.36613 18.8483 6.93441 19.5025 6.94762C20.1765 6.96084 20.7448 6.39917 20.7448 5.71855Z" fill="#2EAF00" stroke="#2EAF00" stroke-width="0.5"/>
<path d="M20.9497 2.90979C20.5466 2.90318 20.3153 2.59922 20.4211 2.27543C20.5268 1.95164 20.6656 1.64107 20.8175 1.33049C20.9431 1.07278 21.181 1.0001 21.4321 1.09922C21.6832 1.19834 21.7823 1.423 21.6964 1.6675C21.5775 2.01111 21.4387 2.34811 21.2669 2.6653C21.2008 2.79745 21.0158 2.86353 20.9497 2.90979Z" fill="#2EAF00" stroke="#2EAF00" stroke-width="0.5"/>
<path d="M22.7601 4.89205C22.6081 4.74668 22.4363 4.64095 22.357 4.48236C22.2513 4.27751 22.3372 4.04624 22.5486 3.94712C22.8856 3.78192 23.2293 3.64315 23.5861 3.52421C23.8041 3.45152 24.0354 3.53082 24.1015 3.75549C24.1478 3.92069 24.1279 4.22465 24.0288 4.28412C23.6456 4.5154 23.2226 4.67399 22.7601 4.89205Z" fill="#2EAF00" stroke="#2EAF00" stroke-width="0.5"/>
<path d="M16.3107 4.93133C15.835 4.70666 15.4121 4.54807 15.042 4.3168C14.9429 4.25072 14.8966 3.92032 14.9693 3.79477C15.0552 3.656 15.3262 3.52385 15.4715 3.55689C15.8284 3.64279 16.1852 3.79477 16.4958 3.9864C16.6213 4.0657 16.727 4.33001 16.694 4.482C16.661 4.64059 16.4627 4.76614 16.3107 4.93133Z" fill="#2EAF00" stroke="#2EAF00" stroke-width="0.5"/>
<path d="M17.2756 9.91422C17.4937 9.45166 17.6523 9.02876 17.8902 8.6521C17.9563 8.55298 18.2602 8.52655 18.4188 8.57942C18.6369 8.6455 18.7294 8.87677 18.6567 9.09483C18.5378 9.44505 18.4122 9.80849 18.214 10.1191C18.1347 10.2446 17.8505 10.3305 17.6853 10.3041C17.54 10.2777 17.4276 10.0662 17.2756 9.91422Z" fill="#2EAF00" stroke="#2EAF00" stroke-width="0.5"/>
<path d="M21.8219 9.90718C21.6832 10.0526 21.5774 10.231 21.4188 10.3037C21.2206 10.3962 20.9827 10.3433 20.877 10.1252C20.7118 9.78163 20.5598 9.4248 20.4475 9.05476C20.3748 8.8367 20.4871 8.61203 20.7184 8.55916C20.8836 8.52612 21.1744 8.55916 21.2404 8.66489C21.4651 9.02833 21.6171 9.44463 21.8219 9.90718Z" fill="#2EAF00" stroke="#2EAF00" stroke-width="0.5"/>
<path d="M18.7029 2.47995C18.5642 2.63193 18.4651 2.81035 18.3131 2.88964C18.1148 2.98876 17.877 2.92268 17.7712 2.71123C17.5994 2.36762 17.4342 2.01079 17.3483 1.64074C17.3153 1.49537 17.4673 1.23105 17.606 1.15176C17.7316 1.07907 18.0554 1.13193 18.1215 1.23766C18.3461 1.6077 18.4981 2.024 18.7029 2.47995Z" fill="#2EAF00" stroke="#2EAF00" stroke-width="0.5"/>
<path d="M24.1677 7.30369C24.1744 7.74643 23.8836 7.97109 23.5334 7.85876C23.2096 7.75303 22.899 7.61427 22.5951 7.46228C22.3638 7.34334 22.2713 7.1385 22.377 6.88079C22.4827 6.61647 22.7008 6.51074 22.9651 6.59665C23.2955 6.70898 23.6259 6.84775 23.9299 7.01295C24.0554 7.07903 24.1215 7.25083 24.1677 7.30369Z" fill="#2EAF00" stroke="#2EAF00" stroke-width="0.5"/>
<path d="M16.3109 6.53711C16.4629 6.68248 16.6347 6.78821 16.714 6.94019C16.8197 7.15165 16.7272 7.36971 16.5224 7.47543C16.1788 7.64724 15.8219 7.81244 15.4585 7.90495C15.3197 7.93799 15.0422 7.79922 14.9893 7.66706C14.9233 7.52169 14.9629 7.19129 15.0752 7.11861C15.4387 6.88733 15.855 6.74195 16.3109 6.53711Z" fill="#2EAF00" stroke="#2EAF00" stroke-width="0.5"/>
</g>
<defs>
<clipPath id="clip0_132_37">
<rect width="25" height="32" fill="white" transform="translate(0.814209)"/>
</clipPath>
</defs>
</svg>
