<svg width="50" height="40" viewBox="0 0 50 40" fill="none" xmlns="http://www.w3.org/2000/svg">
<path d="M32.5197 5.62721C33.3333 5.85298 34.1036 6.00059 34.8219 6.27846C36.6913 6.9905 38.0675 8.27565 39.0368 10.021C39.6686 11.1585 39.9455 12.3742 39.9975 13.6594C40.0321 14.4148 39.7119 14.7622 38.9589 14.7708C37.4703 14.7795 35.9903 14.7708 34.5017 14.7708C31.1696 14.7708 27.8375 14.7708 24.5054 14.7708C23.5188 14.7708 23.2332 14.4843 23.2678 13.5031C23.4236 9.55211 26.4701 6.27846 30.3474 5.78351C30.6763 5.74009 30.7455 5.63589 30.7455 5.33197C30.7542 3.21322 29.3521 1.78045 27.2317 1.78045C25.1545 1.78045 23.0774 1.77177 21.0002 1.78045C16.3872 1.78914 12.6311 4.99332 11.8781 9.55211C11.8088 9.99497 11.7742 10.4465 11.7742 10.8894C11.7656 15.3613 11.7656 19.8333 11.7656 24.3052C11.7656 24.4181 11.7656 24.531 11.7656 24.6699C12.6916 24.6699 13.5744 24.6699 14.5265 24.6699C14.5265 24.1489 14.5265 23.6366 14.5265 23.1243C14.5265 22.4644 14.864 22.0736 15.4179 22.0823C15.9545 22.091 16.2834 22.4644 16.2834 23.1069C16.292 24.7568 16.292 26.4066 16.2834 28.0565C16.2834 28.7077 15.9199 29.1159 15.3833 29.0985C14.864 29.0898 14.5265 28.6817 14.5178 28.0565C14.5178 27.5528 14.5178 27.0492 14.5178 26.5108C13.6004 26.5108 12.7176 26.5108 11.7569 26.5108C11.7569 26.6758 11.7569 26.8408 11.7569 27.0058C11.7569 30.9828 11.7569 34.9598 11.7569 38.9455C11.7569 39.5794 11.4713 39.9528 10.9607 39.9962C10.4587 40.0396 10.0606 39.7096 10.0087 39.206C10 39.0931 10 38.9715 10 38.8586C10 29.6108 10 20.363 10 11.1238C10 7.27706 11.5752 4.21181 14.6822 1.97149C16.5776 0.608191 18.724 -0.017015 21.0608 0.000351795C23.1207 0.00903521 25.1891 0.000351795 27.249 0.000351795C30.3214 0.00903521 32.5024 2.19726 32.5197 5.27987C32.5197 5.41012 32.5197 5.54037 32.5197 5.62721ZM25.1112 12.9473C29.4733 12.9473 33.8093 12.9473 38.154 12.9473C38.1367 12.8171 38.1194 12.7216 38.1021 12.626C37.9723 11.9922 37.9723 12.0008 37.3405 12.0008C36.674 12.0008 36.0163 12.0182 35.3499 11.9922C34.8046 11.9748 34.4324 11.5753 34.4411 11.0891C34.4498 10.5941 34.8392 10.2381 35.3845 10.2121C35.5576 10.2034 35.7307 10.2121 35.9038 10.2121C36.2673 10.2121 36.6308 10.2121 37.0722 10.2121C35.3931 7.9891 33.2121 7.24232 30.6417 7.52887C28.7982 7.73728 27.3355 8.64035 26.1844 10.2121C26.4441 10.2121 26.5999 10.2121 26.7557 10.2121C28.6597 10.2121 30.5638 10.2121 32.4678 10.2121C32.6149 10.2121 32.7621 10.2034 32.9006 10.2294C33.3506 10.2989 33.6535 10.6549 33.6622 11.0978C33.6708 11.5406 33.3766 11.8966 32.9265 11.9748C32.7707 12.0008 32.6149 12.0008 32.4505 12.0008C30.3474 12.0008 28.2443 12.0008 26.1325 12.0008C25.2324 11.9922 25.2324 11.9922 25.1112 12.9473Z" fill="#2EAF00"/>
<path d="M32.52 23.1588C32.52 23.4627 32.5373 23.7666 32.52 24.0618C32.4854 24.5742 32.1046 24.9389 31.6286 24.9389C31.1699 24.9389 30.7804 24.5915 30.7545 24.0966C30.7199 23.48 30.7199 22.8548 30.7545 22.2383C30.7804 21.7173 31.1786 21.37 31.6546 21.3873C32.1306 21.4047 32.4854 21.7694 32.52 22.2904C32.5287 22.5857 32.52 22.8722 32.52 23.1588Z" fill="#2EAF00"/>
<path d="M32.5194 28.525C32.5194 28.8116 32.5367 29.1068 32.5194 29.3933C32.4848 29.923 32.1213 30.2704 31.6366 30.2704C31.1433 30.2704 30.7712 29.9317 30.7538 29.3933C30.7279 28.8029 30.7279 28.2037 30.7538 27.6132C30.7798 27.0836 31.152 26.7275 31.6366 26.7275C32.1386 26.7275 32.5021 27.1009 32.5281 27.648C32.5281 27.9432 32.5194 28.2298 32.5194 28.525Z" fill="#2EAF00"/>
<path d="M32.5116 17.8446C32.5116 18.1311 32.5289 18.4264 32.5116 18.7129C32.477 19.2426 32.1222 19.5986 31.6375 19.5986C31.1442 19.6073 30.772 19.2687 30.746 18.7303C30.7201 18.1224 30.7201 17.5146 30.746 16.9067C30.772 16.3944 31.1442 16.0645 31.6115 16.0645C32.1049 16.0645 32.4684 16.4031 32.503 16.9328C32.5289 17.2367 32.5116 17.5406 32.5116 17.8446Z" fill="#2EAF00"/>
<path d="M32.5113 33.8395C32.5113 34.1434 32.5286 34.4473 32.5113 34.7425C32.4767 35.2549 32.0872 35.6196 31.6198 35.6196C31.1611 35.6196 30.7717 35.2722 30.7457 34.7686C30.7111 34.1521 30.7111 33.5268 30.7457 32.9103C30.7717 32.3893 31.1698 32.0507 31.6545 32.068C32.1218 32.0854 32.4767 32.424 32.5113 32.9277C32.5286 33.2316 32.5113 33.5355 32.5113 33.8395Z" fill="#2EAF00"/>
<path d="M28.0456 23.1854C28.0456 23.5067 28.0629 23.8193 28.0456 24.1406C28.011 24.6095 27.6388 24.9481 27.1888 24.9481C26.73 24.9568 26.3233 24.5921 26.306 24.1145C26.2886 23.4893 26.2886 22.8728 26.306 22.2476C26.3233 21.7613 26.7041 21.4053 27.1714 21.3966C27.6475 21.388 28.0196 21.7353 28.0456 22.2302C28.0629 22.5428 28.0456 22.8641 28.0456 23.1854Z" fill="#2EAF00"/>
<path d="M36.9516 23.1681C36.9516 23.4893 36.9689 23.802 36.9516 24.1232C36.917 24.6095 36.5275 24.9568 36.0688 24.9482C35.6188 24.9395 35.238 24.5921 35.2206 24.1319C35.1947 23.498 35.1947 22.8555 35.2206 22.2216C35.238 21.7353 35.6361 21.388 36.1034 21.3966C36.5622 21.4053 36.9257 21.744 36.9516 22.2129C36.9689 22.5255 36.9516 22.8468 36.9516 23.1681Z" fill="#2EAF00"/>
<path d="M28.0454 33.8825C28.0454 34.1691 28.0541 34.4643 28.0454 34.7509C28.0195 35.2632 27.63 35.6366 27.154 35.6192C26.6953 35.6105 26.3145 35.2371 26.2972 34.7595C26.2799 34.1517 26.2799 33.5439 26.2972 32.936C26.3145 32.4324 26.6693 32.085 27.1453 32.0763C27.6473 32.0677 28.0108 32.4063 28.0454 32.9273C28.0628 33.2399 28.0454 33.5612 28.0454 33.8825Z" fill="#2EAF00"/>
<path d="M36.9513 33.8833C36.9513 34.1873 36.9686 34.4912 36.9513 34.7951C36.9167 35.2727 36.5186 35.6374 36.0599 35.62C35.6185 35.6113 35.229 35.2553 35.2117 34.7951C35.1944 34.1612 35.1857 33.5186 35.2117 32.8848C35.229 32.3985 35.6271 32.0598 36.1032 32.0685C36.5619 32.0772 36.9167 32.4072 36.9513 32.8848C36.9686 33.0584 36.96 33.2321 36.96 33.4058C36.96 33.5621 36.96 33.727 36.9513 33.8833C36.96 33.8833 36.9513 33.8833 36.9513 33.8833Z" fill="#2EAF00"/>
<path d="M28.0451 28.5165C28.0451 28.8378 28.0624 29.1504 28.0451 29.4717C28.0104 29.9493 27.6556 30.2705 27.1882 30.2705C26.7036 30.2705 26.3228 29.9406 26.3054 29.4456C26.2881 28.8117 26.2795 28.1692 26.3054 27.5353C26.3228 27.075 26.7122 26.7364 27.1623 26.7277C27.621 26.719 28.0018 27.049 28.0364 27.5179C28.0624 27.8479 28.0364 28.1865 28.0451 28.5165Z" fill="#2EAF00"/>
<path d="M35.203 28.4904C35.203 28.1692 35.1857 27.8566 35.203 27.5353C35.2376 27.0664 35.6098 26.7364 36.0598 26.7277C36.5185 26.719 36.9166 27.049 36.9339 27.5179C36.9599 28.1778 36.9599 28.8465 36.9339 29.5151C36.9166 29.9579 36.5272 30.2705 36.0858 30.2705C35.6184 30.2705 35.2549 29.9493 35.2117 29.489C35.1943 29.3154 35.203 29.1417 35.203 28.968C35.203 28.8117 35.203 28.6554 35.203 28.4904Z" fill="#2EAF00"/>
<path d="M28.0454 17.8446C28.0454 18.1485 28.0628 18.4524 28.0454 18.7563C28.0195 19.26 27.6646 19.5986 27.18 19.5986C26.6866 19.5986 26.3145 19.2513 26.2972 18.7303C26.2799 18.1224 26.2799 17.5146 26.2972 16.9067C26.3145 16.4118 26.6866 16.0731 27.1626 16.0645C27.6473 16.0645 28.0108 16.3944 28.0368 16.8894C28.0628 17.2107 28.0454 17.532 28.0454 17.8446Z" fill="#2EAF00"/>
<path d="M36.9508 17.8098C36.9508 18.1311 36.9681 18.4437 36.9508 18.765C36.9249 19.26 36.5614 19.5986 36.0854 19.5986C35.6093 19.5986 35.2285 19.26 35.2112 18.765C35.1939 18.1485 35.1939 17.5233 35.2112 16.8981C35.2285 16.4031 35.6007 16.0645 36.0767 16.0645C36.5614 16.0645 36.9162 16.3944 36.9508 16.8981C36.9681 17.202 36.9508 17.5059 36.9508 17.8098Z" fill="#2EAF00"/>
</svg>
