<svg width="25" height="30" viewBox="0 0 25 30" fill="none" xmlns="http://www.w3.org/2000/svg">
<g clip-path="url(#clip0_135_347)">
<path d="M8.24696 29.9417C7.8376 29.8657 7.4224 29.8072 7.01889 29.7078C3.52766 28.8833 0.948719 26.0353 0.597842 22.4681C0.258661 19.0529 1.58615 16.3803 4.41655 14.4447C4.69725 14.2517 4.97796 14.047 5.35222 14.1289C5.74989 14.2166 6.02474 14.4915 6.08322 14.8657C6.15339 15.2751 5.98965 15.6201 5.63293 15.8306C4.05983 16.7605 3.05983 18.1172 2.59784 19.8774C1.62123 23.5909 4.20603 27.4505 8.01304 27.9651C10.861 28.3511 13.5452 26.9651 14.8201 24.4213C15.0189 24.0295 15.2587 23.7078 15.7265 23.7078C16.2236 23.702 16.5686 24.0061 16.7967 24.4096C17.4282 25.5148 18.0481 26.6318 18.6505 27.7546C18.785 28.0002 18.9312 28.0938 19.2119 28.0879C20.1008 28.0646 20.9838 28.0821 21.8727 28.0821C22.475 28.0821 22.8493 28.3511 22.9487 28.854C23.0364 29.2926 22.785 29.6727 22.2586 29.9008C22.2411 29.9067 22.2294 29.9242 22.2177 29.9417C20.8727 29.9417 19.5277 29.9417 18.1826 29.9417C17.785 29.8131 17.5627 29.5148 17.3698 29.1581C16.9136 28.3102 16.4399 27.4739 15.9721 26.6377C15.9253 26.5558 15.8727 26.4798 15.8142 26.3745C15.7382 26.4739 15.6739 26.5441 15.6154 26.6201C14.4282 28.1581 12.8961 29.1815 11.013 29.6727C10.5452 29.7955 10.0657 29.8599 9.58614 29.9476C9.1417 29.9417 8.69725 29.9417 8.24696 29.9417Z" fill="#2EAF00"/>
<path d="M17.7206 0C17.8961 0.0409357 18.0774 0.0818713 18.2528 0.122807C19.9604 0.520468 21.1943 2.16959 21.0949 3.91813C20.9896 5.72515 19.6329 7.19883 17.8785 7.4269C15.592 7.7193 13.6095 5.96491 13.6387 3.68421C13.668 1.8655 15.0189 0.327485 16.8259 0.0584795C16.8902 0.0467836 16.9545 0.0175439 17.0189 0C17.2528 0 17.4867 0 17.7206 0ZM17.3581 5.62573C18.399 5.62573 19.2469 4.80117 19.2528 3.76608C19.2586 2.7076 18.4282 1.85965 17.3814 1.85965C16.323 1.85965 15.4867 2.69591 15.4867 3.74854C15.4867 4.78363 16.323 5.62573 17.3581 5.62573Z" fill="#2EAF00"/>
<path d="M9.59204 29.9413C10.0657 29.8535 10.5511 29.7892 11.0189 29.6664C12.902 29.1752 14.4341 28.1576 15.6213 26.6138C15.6798 26.5378 15.7382 26.4617 15.8201 26.3682C15.8844 26.4734 15.9371 26.5495 15.978 26.6313C16.4458 27.4734 16.9254 28.3038 17.3757 29.1518C17.5686 29.5085 17.7909 29.8068 18.1885 29.9354C15.323 29.9413 12.4575 29.9413 9.59204 29.9413Z" fill="white"/>
<path d="M16.0948 14.982C16.6445 14.982 17.1416 14.982 17.6387 14.982C19.1592 14.9937 20.3112 15.6486 21.0656 16.9761C22.1825 18.9352 23.3112 20.8943 24.4165 22.865C25.0597 24.0054 24.896 25.3679 24.0422 26.2802C22.779 27.6252 20.5919 27.3504 19.6328 25.7071C18.8609 24.3913 18.1124 23.058 17.3521 21.7305C17.1708 21.4206 16.9837 21.1106 16.82 20.789C16.7322 20.6136 16.6153 20.5668 16.4282 20.5668C15.013 20.5726 13.6036 20.5785 12.1884 20.5668C10.4574 20.5492 9.00126 19.4089 8.58605 17.7422C8.36383 16.8416 8.46325 15.9644 8.8843 15.134C9.38722 14.1457 9.8843 13.1516 10.3814 12.1633C10.434 12.058 10.4866 11.9527 10.551 11.8241C10.4515 11.7714 10.3638 11.7188 10.2703 11.672C9.68547 11.3913 9.08898 11.1165 8.51003 10.8241C8.31705 10.7247 8.15915 10.7364 7.96617 10.8241C7.29365 11.1457 6.60944 11.4674 5.92523 11.7656C4.62699 12.3328 3.1767 11.9059 2.42231 10.7539C1.54512 9.40302 2.04804 7.48489 3.52172 6.7422C4.5802 6.21004 5.67377 5.73635 6.76734 5.28021C7.65038 4.91179 8.56266 4.93518 9.4457 5.29776C11.4632 6.12232 13.4808 6.94688 15.4808 7.81238C17.4223 8.65448 18.2176 11.0171 17.2352 12.9176C16.9311 13.5024 16.5919 14.0755 16.2703 14.6545C16.2118 14.7422 16.1708 14.8358 16.0948 14.982ZM16.9837 16.8299C16.7323 16.8299 16.4749 16.8299 16.2235 16.8299C15.4632 16.8358 14.8492 16.5434 14.4749 15.8709C14.1007 15.1983 14.1767 14.5258 14.5802 13.8826C14.9194 13.3387 15.2586 12.789 15.5861 12.2393C16.2001 11.2159 15.8258 9.95858 14.7381 9.49074C12.7732 8.65448 10.7907 7.84162 8.81412 7.0229C8.39307 6.84747 7.94863 6.80068 7.53342 6.98197C6.48664 7.42641 5.4457 7.89425 4.41646 8.37378C4.02465 8.56092 3.83167 9.02875 3.90184 9.46735C3.95447 9.80068 4.25272 10.1165 4.64453 10.1574C4.86091 10.1808 5.11237 10.1282 5.31705 10.0404C5.99541 9.7422 6.66208 9.42057 7.32289 9.09308C7.97202 8.77144 8.6036 8.7656 9.25272 9.09893C9.91938 9.44396 10.5977 9.75975 11.2703 10.0931C12.3697 10.6369 12.7147 11.6662 12.1708 12.7539C11.6387 13.8182 11.1007 14.8709 10.5744 15.9352C9.90184 17.3036 10.7907 18.7247 12.317 18.7247C13.7206 18.7247 15.1241 18.7305 16.5276 18.7247C17.3521 18.7188 17.9603 19.0638 18.3638 19.789C19.282 21.4264 20.2176 23.0522 21.1533 24.6837C21.4866 25.2627 21.9896 25.4264 22.5217 25.1282C22.9545 24.8884 23.1065 24.2627 22.8258 23.7656C21.6913 21.7598 20.5451 19.7539 19.3931 17.7598C19.0363 17.1399 18.4632 16.8358 17.7439 16.8299C17.4925 16.8299 17.241 16.8299 16.9837 16.8299Z" fill="#2EAF00"/>
</g>
<defs>
<clipPath id="clip0_135_347">
<rect width="24.269" height="30" fill="white" transform="translate(0.545166)"/>
</clipPath>
</defs>
</svg>
