<svg width="50" height="40" viewBox="0 0 50 40" fill="none" xmlns="http://www.w3.org/2000/svg">
<path d="M4.93962 25.7719C5.22977 25.7719 5.43569 25.7719 5.63225 25.7719C12.5305 25.7719 19.4193 25.7906 26.3176 25.7626C29.0319 25.7532 31.297 26.6873 33.1783 28.6209C34.5823 30.0595 36.005 31.4793 37.4371 32.8898C37.6149 33.0579 37.9144 33.1981 38.1578 33.1981C40.6569 33.2261 43.1466 33.2261 45.6457 33.2448C47.6206 33.2634 49.0808 34.7767 48.9965 36.6729C48.9123 38.5038 47.4334 39.9797 45.6083 39.989C42.5663 40.0077 39.5243 39.9983 36.4824 39.989C35.4622 39.989 34.6198 39.606 33.8991 38.8774C32.7478 37.6911 31.5591 36.5515 30.3985 35.3652C29.7339 34.6833 28.957 34.3844 28.0117 34.3844C22.6766 34.3937 17.3414 34.3937 12.0063 34.3937C11.7442 34.3937 11.4728 34.4031 11.2107 34.3844C10.6117 34.3377 10.1905 33.908 10.1718 33.3288C10.1437 32.759 10.5368 32.2826 11.1265 32.1892C11.3137 32.1612 11.5009 32.1612 11.6881 32.1612C17.1168 32.1612 22.5455 32.1705 27.9743 32.1519C29.5467 32.1519 30.8571 32.6563 31.9522 33.7865C33.1128 34.9822 34.2922 36.1592 35.4996 37.3175C35.7336 37.5416 36.1173 37.7098 36.4356 37.7191C39.4307 37.7471 42.4259 37.7378 45.4211 37.7378C45.861 37.7378 46.2167 37.6164 46.4787 37.2614C46.7408 36.8971 46.8531 36.5048 46.6472 36.0751C46.4506 35.6641 46.0856 35.5053 45.6551 35.496C45.1683 35.4866 44.691 35.496 44.2043 35.496C41.986 35.496 39.7771 35.4866 37.5588 35.5053C37.0533 35.5053 36.6696 35.3372 36.3139 34.9915C34.6666 33.3288 33.0005 31.6941 31.3532 30.0314C30.0054 28.677 28.3955 28.0231 26.486 28.0231C18.8297 28.0325 11.1639 28.0325 3.50755 28.0325C3.39524 28.0325 3.29228 28.0325 3.17996 28.0325C2.26269 28.0044 1.72918 27.1731 2.14101 26.3604C4.2657 22.1196 6.35296 17.86 8.55253 13.6566C10.2654 10.3685 14.4399 9.87345 17.0326 12.517C20.346 15.8984 23.7062 19.2425 27.0476 22.596C27.3846 22.9322 27.6373 23.2779 27.5063 23.7916C27.2816 24.6323 26.3737 24.9406 25.7092 24.3801C25.4097 24.1279 25.1476 23.8383 24.8761 23.5674C21.8061 20.5036 18.7267 17.4584 15.6847 14.3758C15.0483 13.7313 14.4024 13.1989 13.4758 13.0961C12.2122 12.9653 11.0329 13.6286 10.4245 14.8335C8.98308 17.6919 7.55102 20.5596 6.11896 23.4273C5.74456 24.1653 5.36081 24.9312 4.93962 25.7719Z" fill="#2EAF00"/>
<path d="M25.4194 5.62334C25.41 8.68721 22.8922 11.2 19.8128 11.2C16.7053 11.2 14.1875 8.68721 14.1875 5.59532C14.1875 2.50343 16.7147 -0.0093151 19.8221 2.59597e-05C22.9203 2.59597e-05 25.4287 2.52211 25.4194 5.62334ZM19.8034 2.23254C17.9408 2.23254 16.4432 3.72711 16.4432 5.58598C16.4432 7.46353 17.9595 8.96744 19.8409 8.9581C21.6941 8.94876 23.1917 7.43551 23.1823 5.57664C23.1636 3.72711 21.6567 2.23254 19.8034 2.23254Z" fill="#2EAF00"/>
<path d="M46.3852 26.1644C46.3759 29.2563 43.8487 31.7597 40.7412 31.7503C37.6525 31.741 35.1347 29.2002 35.1534 26.1083C35.1721 23.0164 37.7087 20.5317 40.8255 20.541C43.8955 20.5597 46.3946 23.0912 46.3852 26.1644ZM44.1389 26.1363C44.1389 24.2775 42.6319 22.7829 40.7693 22.7829C38.9067 22.7829 37.4091 24.2775 37.3998 26.127C37.3904 28.0046 38.9067 29.5085 40.788 29.4991C42.6506 29.4991 44.1389 27.9952 44.1389 26.1363Z" fill="#2EAF00"/>
<path d="M16.3676 21.3536C16.0868 21.9047 15.8528 22.3905 15.6001 22.8762C15.2631 23.5207 14.6266 23.7729 14.0463 23.4834C13.4941 23.2125 13.2882 22.5493 13.597 21.9141C14.0744 20.9239 14.5705 19.9338 15.0759 18.953C15.4316 18.2711 16.2646 18.159 16.8543 18.7194C17.6779 19.5041 18.4735 20.3168 19.2785 21.1201C19.7933 21.6338 20.3174 22.1476 20.8322 22.68C21.3283 23.2031 21.347 23.9131 20.8884 24.3427C20.4297 24.7724 19.7652 24.7351 19.2598 24.2307C18.2957 23.3059 17.3597 22.3531 16.3676 21.3536Z" fill="#2EAF00"/>
<path d="M5.67938 32.1242C6.29713 32.1148 6.80257 32.6192 6.80257 33.2451C6.80257 33.8709 6.29713 34.366 5.67938 34.3567C5.08971 34.3473 4.58428 33.8523 4.56556 33.2638C4.5562 32.6566 5.07099 32.1335 5.67938 32.1242Z" fill="#2EAF00"/>
</svg>
