<svg width="25" height="30" viewBox="0 0 25 30" fill="none" xmlns="http://www.w3.org/2000/svg">
<g clip-path="url(#clip0_164_1732)">
<path d="M4.35559 1.82707C4.35559 1.44361 4.34807 1.1203 4.35559 0.796993C4.37063 0.31579 4.6789 0 5.1225 0C5.55108 0 5.85935 0.300752 5.86686 0.774436C5.8819 1.82707 5.8819 2.8797 5.86686 3.93233C5.85935 4.39098 5.53604 4.69925 5.11499 4.69925C4.69393 4.69925 4.37814 4.38346 4.36311 3.92481C4.35559 3.7594 4.36311 3.6015 4.36311 3.40602C3.72401 3.40602 3.09243 3.40602 2.41574 3.40602C2.41574 4.02256 2.46085 4.6391 2.40822 5.2406C2.32551 6.20301 2.58867 7.03008 3.10747 7.84962C4.22777 9.60902 5.26536 11.4286 6.33303 13.2256C6.46085 13.4436 6.60371 13.5338 6.86686 13.5338C8.72401 13.5188 10.5736 13.5263 12.4308 13.5338C12.6789 13.5338 12.8142 13.4586 12.9345 13.2481C14.1601 11.0977 15.4007 8.94737 16.6338 6.79699C16.7014 6.67669 16.7766 6.54887 16.7842 6.42105C16.7992 5.42105 16.7917 4.42105 16.7917 3.3985C16.2353 3.3985 15.7014 3.3985 15.1225 3.3985C15.1225 3.60902 15.1375 3.81203 15.1225 4.00752C15.0924 4.41353 14.7691 4.69925 14.3781 4.70677C13.9872 4.70677 13.6338 4.41353 13.6263 4.01504C13.6112 2.90977 13.6112 1.81203 13.6263 0.706767C13.6338 0.300752 13.9721 0.0150376 14.3706 0.0150376C14.7917 0.0150376 15.0999 0.308271 15.1225 0.736842C15.1375 1.08271 15.1225 1.43609 15.1225 1.82707C15.2804 1.83459 15.4082 1.85714 15.5435 1.85714C15.9721 1.86466 16.3932 1.84962 16.8217 1.86466C17.6864 1.90226 18.3105 2.50376 18.333 3.37594C18.3556 4.39098 18.3706 5.40602 18.3255 6.42105C18.3105 6.78947 18.1751 7.18797 17.9947 7.5188C16.2278 10.6015 14.4684 13.6842 12.7014 16.7744C12.2578 17.5489 11.5887 18.0526 10.739 18.3158C10.5135 18.3835 10.4308 18.4737 10.4458 18.6992C10.6037 21.2481 11.0699 23.7143 12.3405 25.9699C12.7466 26.6992 13.2578 27.3459 13.942 27.8421C15.0097 28.609 16.115 28.6541 17.2503 28C18.0022 27.5639 18.5586 26.9248 19.0323 26.1955C19.9947 24.7068 20.506 23.0526 20.739 21.3083C20.8443 20.5414 20.8518 19.7594 20.9044 18.985C20.9195 18.7669 20.8443 18.6917 20.6338 18.6316C19.2052 18.2331 18.2654 16.8797 18.4383 15.4887C18.6263 13.9474 19.8217 12.8496 21.3405 12.812C22.7917 12.7744 24.0323 13.8045 24.3105 15.2782C24.5435 16.4962 23.8969 17.797 22.7616 18.391C22.6488 18.4511 22.536 18.5038 22.4232 18.5564C22.4684 20.9474 22.1375 23.2556 21.1751 25.4511C20.6037 26.7519 19.8443 27.9248 18.7315 28.8271C16.739 30.4286 14.318 30.3459 12.4608 28.594C11.1375 27.3459 10.3932 25.7519 9.84431 24.0526C9.28792 22.3158 9.0022 20.5263 8.92701 18.6992C8.91949 18.4586 8.85182 18.3534 8.61122 18.2857C7.74656 18.0226 7.09243 17.4887 6.63378 16.7143C4.84431 13.6992 3.04732 10.6917 1.25033 7.67669C1.00221 7.25564 0.874387 6.81203 0.881905 6.32331C0.896943 5.36842 0.881905 4.42105 0.889424 3.46617C0.896943 2.4812 1.50597 1.85714 2.50596 1.83459C3.10747 1.81955 3.70145 1.82707 4.35559 1.82707ZM21.3932 14.3383C20.6037 14.3308 19.9571 14.9549 19.9345 15.7519C19.9195 16.5564 20.5962 17.2256 21.4232 17.218C22.1751 17.218 22.8142 16.5564 22.8142 15.782C22.8142 14.985 22.1902 14.3459 21.3932 14.3383ZM7.46837 15.0526C8.03228 16.3684 8.66386 17 9.79919 16.9323C10.7014 16.8797 11.5661 16.0526 11.7842 15.0526C10.3405 15.0526 8.90446 15.0526 7.46837 15.0526Z" fill="#2EAF00"/>
</g>
<defs>
<clipPath id="clip0_164_1732">
<rect width="23.609" height="30" fill="white" transform="translate(0.814209)"/>
</clipPath>
</defs>
</svg>
