<svg width="50" height="40" viewBox="0 0 50 40" fill="none" xmlns="http://www.w3.org/2000/svg">
<path d="M12.5468 21.0635C13.2958 21.2524 14.1946 21.3717 15.0135 21.6899C19.4577 23.4498 23.8919 25.2396 28.3162 27.0493C31.7617 28.4612 33.3995 32.3887 31.9914 35.7992C30.5632 39.2694 26.6783 40.9001 23.1829 39.4981C18.7886 37.7382 14.4043 35.9683 10.02 34.1984C7.23369 33.0748 5.51593 30.4995 5.63577 27.6558C5.75562 24.7723 7.66313 22.2865 10.4295 21.4612C11.0687 21.2723 11.7378 21.2126 12.5468 21.0635ZM18.2693 35.2822C18.3891 35.3419 18.459 35.3916 18.5289 35.4214C20.3566 36.1572 22.1842 36.9328 24.0318 37.6188C24.641 37.8475 25.3301 37.9768 25.9792 37.937C28.2363 37.8277 30.0239 36.2169 30.3835 34.089C30.763 31.9015 29.6344 29.8234 27.5372 28.9285C26.0092 28.2723 24.4612 27.6757 22.9232 27.0493C22.5637 26.9001 22.1942 26.7609 21.7947 26.6018C21.6449 26.9498 21.535 27.2581 21.3952 27.5564C21.1355 28.143 20.5863 28.3816 20.0569 28.1629C19.5177 27.9441 19.288 27.4072 19.5077 26.8106C19.6275 26.4924 19.7573 26.1743 19.8872 25.8163C17.8099 24.991 15.7825 24.1657 13.7352 23.3902C12.9462 23.0919 12.0973 23.1217 11.2784 23.3305C9.36091 23.8177 7.93277 25.4385 7.73303 27.3177C7.52331 29.3958 8.55196 31.295 10.4495 32.1402C11.6579 32.687 12.9063 33.1444 14.1347 33.6515C14.8637 33.9498 15.6028 34.2382 16.3618 34.5464C16.5915 33.9796 16.8112 33.4626 17.0209 32.9356C17.4603 31.8518 17.8998 30.7581 18.3492 29.6743C18.5289 29.2368 18.8685 28.9683 19.3479 28.9882C19.7773 28.9981 20.1568 29.2169 20.2567 29.6444C20.3266 29.9427 20.2866 30.3106 20.1768 30.599C19.5576 32.1402 18.9184 33.6814 18.2693 35.2822Z" fill="#2EAF00"/>
<path d="M2.00007 9.86747C2.02004 4.68707 6.25452 0.491051 11.4577 0.500994C16.7508 0.510937 20.9353 4.72684 20.9154 10.0166C20.8954 15.1473 16.631 19.3533 11.4577 19.3334C6.17462 19.3135 1.9801 15.1075 2.00007 9.86747ZM17.9792 13.3177C19.5971 10.6231 19.1377 6.11889 15.5424 3.75241C12.027 1.4456 7.84244 2.74815 6.15465 4.86605C6.55412 5.1544 6.96359 5.44275 7.36307 5.74105C7.89238 6.13877 8.01222 6.74531 7.66268 7.21264C7.31313 7.67997 6.71392 7.74957 6.15465 7.37173C5.74518 7.09332 5.3457 6.80497 4.94622 6.51661C3.26841 9.26093 3.84766 13.8248 7.46294 16.1317C11.0782 18.4385 15.2428 16.947 16.7608 14.9584C14.9931 13.6956 13.2254 12.4229 11.4577 11.1601C10.5389 10.5038 9.61013 9.85752 8.70132 9.18139C8.182 8.7936 8.1021 8.20695 8.45165 7.73963C8.78122 7.30213 9.36046 7.21264 9.87978 7.53082C10.0496 7.64019 10.2094 7.75951 10.3691 7.86889C12.8958 9.68849 15.4225 11.4981 17.9792 13.3177Z" fill="#2EAF00"/>
<path d="M20.4258 17.4043C20.4458 16.2609 20.7554 15.0975 21.4445 14.0634C23.9512 10.295 26.4579 6.52649 29.0046 2.78785C30.5825 0.461151 33.4088 -0.51328 36.0754 0.262288C38.7219 1.03786 40.5695 3.39439 40.6594 6.18842C40.7093 7.48103 40.3797 8.6941 39.6607 9.76796C37.134 13.5663 34.6173 17.3645 32.0406 21.133C30.4627 23.4498 27.5565 24.3944 24.8999 23.5691C22.2534 22.7239 20.4657 20.2978 20.4258 17.4043ZM34.7171 13.4867C35.8257 11.8163 36.9542 10.2154 37.9829 8.5549C39.2213 6.55632 38.5821 3.97109 36.6047 2.70831C34.6572 1.45547 32.0606 1.96257 30.7223 3.8816C29.6637 5.40291 28.6451 6.96399 27.6164 8.50518C27.5864 8.5549 27.5765 8.6245 27.5465 8.6941C27.8761 8.91285 28.1956 9.12166 28.5152 9.34041C29.0545 9.71825 29.1943 10.3248 28.8648 10.812C28.5352 11.2992 27.946 11.3887 27.3667 11.0307C27.0372 10.8219 26.7176 10.6032 26.358 10.3745C25.2195 12.0947 24.091 13.7353 23.0324 15.4157C22.4831 16.2907 22.3533 17.2949 22.573 18.2893C22.9725 20.1288 24.101 21.3319 25.9685 21.6998C27.8062 22.0677 29.3242 21.4313 30.4028 19.91C31.3615 18.5577 32.2603 17.1657 33.1791 15.7836C33.309 15.5947 33.4288 15.4057 33.5686 15.187C33.3389 15.0378 33.1492 14.9086 32.9494 14.7793C32.7597 14.6501 32.55 14.5307 32.3602 14.4015C31.8409 14.0336 31.6911 13.4668 31.9907 12.9796C32.3003 12.4825 32.9095 12.3631 33.4788 12.7012C33.8782 12.9398 34.2577 13.1984 34.7171 13.4867Z" fill="#2EAF00"/>
<path d="M47.9994 27.2182C47.9994 31.5137 44.534 34.9938 40.2496 34.9938C35.9552 34.9938 32.4497 31.5336 32.4298 27.2679C32.4098 22.9725 35.9052 19.4824 40.2196 19.4824C44.534 19.4824 47.9894 22.9228 47.9994 27.2182ZM34.7567 28.8887C38.1024 27.1685 41.418 25.4682 44.7337 23.7679C43.3056 21.65 40.1796 20.9043 37.7528 22.0776C35.2061 23.3006 33.8879 26.2338 34.7567 28.8887ZM45.6525 25.5875C42.3368 27.2878 39.0311 28.9881 35.7155 30.6983C37.1736 32.8958 40.4992 33.5818 42.956 32.2594C45.7923 30.7282 46.4315 27.4071 45.6525 25.5875Z" fill="#2EAF00"/>
<path d="M31.6611 11.9648C31.6711 12.5018 31.2117 12.989 30.6624 12.9989C30.0632 13.0089 29.3441 12.3725 29.3341 11.8057C29.3242 11.2589 29.7836 10.7816 30.3328 10.7617C30.9321 10.7617 31.6511 11.408 31.6611 11.9648Z" fill="#2EAF00"/>
</svg>
