<svg width="50" height="40" viewBox="0 0 50 40" fill="none" xmlns="http://www.w3.org/2000/svg">
<path d="M27.9593 0C30.7397 0.0511727 33.7333 0.409382 36.5307 1.72281C37.3324 2.09808 38.0915 2.60128 38.7994 3.13859C39.8655 3.94883 40.1213 5.03198 39.6267 6.29424C38.9017 8.15352 38.1597 10.0213 37.4177 11.8721C37.3069 12.1365 37.2642 12.3326 37.503 12.5885C37.7674 12.8699 37.7503 13.2452 37.5457 13.5778C37.3154 13.9531 36.9572 14.0554 36.5478 13.9787C35.8911 13.8593 35.2344 13.7228 34.5776 13.6119C31.1235 13.0405 27.6523 12.8614 24.1725 13.2026C22.4071 13.3817 20.6587 13.6972 18.9103 13.9616C18.4071 14.0384 18.0403 13.9275 17.8186 13.5778C17.5968 13.2281 17.6565 12.8443 17.938 12.435C18.0148 12.3241 18.0148 12.0938 17.9551 11.9574C17.2386 10.1066 16.5052 8.25586 15.7717 6.41365C15.2173 5.01493 15.4646 4.00853 16.6416 3.0533C18.0403 1.89339 19.6864 1.2452 21.4092 0.784648C23.4646 0.230277 25.5627 0.00852878 27.9593 0ZM19.9081 11.9062C25.0936 10.9936 30.2621 11.0021 35.4049 11.8891C35.4561 11.838 35.4817 11.8209 35.4902 11.7953C36.3175 9.71429 37.1448 7.63326 37.9721 5.54371C38.1256 5.15991 38.0574 4.78465 37.6992 4.5629C36.8548 4.05117 36.0361 3.4371 35.1235 3.09595C30.9614 1.53518 26.68 1.48401 22.373 2.42217C20.6843 2.78891 19.0808 3.39446 17.7162 4.51173C17.2813 4.86994 17.213 5.10021 17.4263 5.629C17.793 6.58422 18.1768 7.53092 18.5521 8.47761C18.9956 9.61194 19.4476 10.7463 19.9081 11.9062Z" fill="#2EAF00"/>
<path d="M17.299 29.9955C15.4312 30.0125 14.1177 29.0658 13.8192 27.4112C13.4184 25.1852 14.6124 23.7183 16.2499 23.3345C16.557 23.2577 16.8981 23.2662 17.2222 23.3089C17.7425 23.3771 18.0751 23.8121 18.0239 24.2897C17.9727 24.8014 17.5634 25.1255 17.009 25.0999C16.2755 25.0658 15.6956 25.5434 15.5762 26.2684C15.4312 27.1895 15.8406 27.9827 16.5826 28.1362C16.7872 28.1788 17.0431 28.1362 17.2307 28.0424C18.0324 27.65 18.493 27.8377 18.7915 28.6905C20.0026 32.1106 22.0666 34.908 25.0431 36.9891C25.6231 37.3984 26.3139 37.6799 26.9877 37.9187C27.7894 38.2001 28.5655 37.9358 29.2904 37.5775C31.0474 36.7076 32.412 35.3686 33.6316 33.8761C34.928 32.2897 35.9344 30.5413 36.5826 28.5882C36.8128 27.8974 37.3501 27.6671 37.9386 27.9656C38.7233 28.3665 39.5079 28.0082 39.7297 27.1298C39.9173 26.4048 39.7126 25.6628 39.1753 25.3302C38.9365 25.1852 38.6209 25.1085 38.3395 25.1085C37.7766 25.0999 37.3672 24.81 37.3075 24.3068C37.2478 23.8036 37.6145 23.3686 38.1774 23.2833C39.7126 23.0616 41.299 24.3153 41.5548 25.9358C41.8022 27.5392 41.2052 28.9635 39.9088 29.6031C39.4226 29.8419 38.8341 29.9187 38.2798 29.9699C38.0069 29.9955 37.9642 30.1234 37.8875 30.3025C36.4887 33.5264 34.4418 36.2385 31.5847 38.311C30.4077 39.1639 29.1369 39.8291 27.6359 39.8206C26.2713 39.8121 25.0943 39.2407 24.0111 38.4901C21.0687 36.4517 18.9706 33.714 17.5207 30.4475C17.461 30.3195 17.4098 30.1831 17.3501 30.0552C17.3416 30.0381 17.316 30.0125 17.299 29.9955Z" fill="#2EAF00"/>
<path d="M21.4269 18.8825C21.2051 19.3174 21.026 19.7353 20.7872 20.1191C20.1305 21.1511 19.1582 21.6628 17.9386 21.7225C17.3587 21.7481 16.9407 21.3985 16.9066 20.8782C16.8725 20.3409 17.2137 19.9315 17.8107 19.9059C18.7744 19.8718 19.3288 19.3345 19.5506 18.4901C19.7467 17.7737 19.8235 17.0147 19.8917 16.2727C19.9514 15.65 20.1902 15.2577 20.6934 15.1895C21.171 15.1213 21.5207 15.4198 21.7169 16.0083C22.0666 17.0488 22.8 17.7908 23.67 18.4134C25.1881 19.4965 26.9194 20.0765 28.7275 20.4603C32.1305 21.1767 35.5762 21.2364 39.0388 21.0061C40.0026 20.9379 40.0111 20.9294 40.1902 19.9741C40.719 17.2364 40.2585 14.6692 38.8342 12.2726C38.7915 12.1959 38.7403 12.1277 38.6977 12.0594C38.3651 11.5051 38.4504 10.9677 38.9194 10.6778C39.3715 10.4048 39.9429 10.5328 40.2158 11.0786C40.7531 12.1362 41.3246 13.1938 41.6913 14.3196C42.5186 16.8867 42.3736 19.4709 41.5207 22.0211C41.3757 22.4475 41.0943 22.6778 40.6508 22.7204C37.5889 22.9763 34.5186 23.053 31.4567 22.7289C29.3501 22.5072 27.2776 22.1149 25.2904 21.3302C23.8576 20.7588 22.5356 19.9997 21.4269 18.8825Z" fill="#2EAF00"/>
<path d="M13.1109 17.825C13.1535 15.4028 13.8017 13.1512 15.0981 11.1043C15.3198 10.7461 15.6269 10.5414 16.0533 10.6011C16.4371 10.6608 16.7356 10.8911 16.7868 11.2749C16.8209 11.5307 16.7612 11.8548 16.6247 12.068C15.7719 13.4668 15.209 14.9678 15.0213 16.5968C14.8678 17.9188 14.9446 19.2322 15.2857 20.5201C15.3454 20.7589 15.3795 21.0318 15.3369 21.2621C15.2601 21.6629 14.8934 21.9103 14.5011 21.9103C14.0832 21.9188 13.7079 21.6885 13.6226 21.2536C13.3838 20.1278 13.2047 18.9849 13 17.842C13.0341 17.8335 13.0768 17.825 13.1109 17.825Z" fill="#2EAF00"/>
<path d="M13.793 39.0279C13.9977 38.7124 14.1341 38.448 14.3132 38.2348C14.6714 37.7998 15.0723 37.3904 15.422 36.9554C15.6608 36.6655 15.6608 36.384 15.2514 36.222C15.149 36.1793 15.0552 36.1111 14.9529 36.0514C13.8441 35.3606 13.4859 34.2859 14.1512 33.1687C14.6117 32.4011 15.2599 31.7443 15.874 31.0876C16.2151 30.7294 16.7695 30.8232 17.0936 31.1814C17.4177 31.5397 17.4177 32.0343 17.0766 32.4181C16.6757 32.8787 16.2407 33.3051 15.874 33.7913C15.5243 34.2518 15.567 34.3115 16.0616 34.6015C16.1725 34.6697 16.2834 34.7294 16.3942 34.7977C17.3751 35.4373 17.6736 36.3755 17.2045 37.4586C16.8036 38.3968 16.0872 39.0962 15.3367 39.7444C15.0723 39.9746 14.7055 40.0088 14.4241 39.8041C14.1938 39.6079 14.0318 39.3179 13.793 39.0279Z" fill="#2EAF00"/>
<path d="M41.5966 34.2603C41.4771 35.1217 41.0337 35.6676 40.3514 36.0684C39.6179 36.5034 39.5923 36.5887 40.1381 37.2624C40.4196 37.6121 40.7522 37.9277 41.0678 38.2603C41.4942 38.6953 41.5369 39.2411 41.1616 39.6164C40.7778 40.0087 40.2405 40.0172 39.8055 39.5567C39.2938 39.0108 38.7479 38.4735 38.3471 37.8509C37.5283 36.5716 37.8524 35.4117 39.1573 34.6441C39.7885 34.2774 39.814 34.2262 39.362 33.6292C39.0635 33.2369 38.7138 32.8787 38.3641 32.5205C37.9292 32.0684 37.8695 31.5652 38.2362 31.1644C38.6115 30.755 39.1744 30.7465 39.6179 31.2156C40.1211 31.7443 40.6243 32.2987 41.0422 32.9043C41.3151 33.2966 41.4174 33.8083 41.5966 34.2603Z" fill="#2EAF00"/>
<path d="M27.6868 34.6269C26.0492 34.6184 24.7187 34.0129 23.7038 32.7335C23.2944 32.2218 23.32 31.6845 23.755 31.3348C24.1899 30.9851 24.7273 31.0619 25.1196 31.5992C26.2795 33.1941 29.0599 33.2112 30.2369 31.5907C30.6207 31.0619 31.1665 30.9937 31.6015 31.3434C32.0194 31.6845 32.045 32.2133 31.6612 32.708C30.6548 34.0129 29.2987 34.6099 27.6868 34.6269Z" fill="#2EAF00"/>
<path d="M24.028 25.3735C24.028 25.689 24.0451 25.9961 24.028 26.3116C23.9939 26.8148 23.6272 27.1645 23.141 27.1645C22.6634 27.173 22.254 26.8148 22.237 26.3287C22.2114 25.6805 22.2114 25.0238 22.237 24.3671C22.254 23.8809 22.6719 23.5312 23.1495 23.5312C23.6357 23.5398 24.0024 23.8895 24.0365 24.3841C24.0365 24.7168 24.028 25.0408 24.028 25.3735Z" fill="#2EAF00"/>
<path d="M33.1278 25.3388C33.1278 25.6544 33.1363 25.9614 33.1278 26.277C33.1022 26.7972 32.7184 27.164 32.2237 27.164C31.7291 27.164 31.3453 26.7972 31.3282 26.277C31.3112 25.6544 31.3112 25.0232 31.3282 24.4006C31.3453 23.8974 31.7205 23.5477 32.1982 23.5392C32.6928 23.5307 33.0937 23.8889 33.1278 24.4006C33.1449 24.7077 33.1278 25.0232 33.1278 25.3388Z" fill="#2EAF00"/>
<path d="M28.5906 5.82489C29.179 5.82489 29.6993 5.82489 30.2196 5.82489C30.8933 5.83342 31.3198 6.20016 31.3112 6.75453C31.3027 7.29184 30.8848 7.65005 30.2281 7.65858C29.7078 7.66711 29.179 7.65858 28.582 7.65858C28.582 7.95709 28.582 8.23853 28.582 8.51146C28.582 8.83555 28.5991 9.16817 28.5735 9.49227C28.5309 10.0125 28.1385 10.3878 27.6609 10.3793C27.1833 10.3707 26.7825 10.004 26.7569 9.47521C26.7313 8.88672 26.7483 8.28971 26.7483 7.65005C26.1343 7.65005 25.5628 7.66711 24.9999 7.65005C24.275 7.62446 23.84 7.01892 24.0874 6.40485C24.2579 5.98694 24.5991 5.81636 25.0341 5.81636C25.5884 5.81636 26.1343 5.81636 26.7398 5.81636C26.7398 5.19376 26.7228 4.6138 26.7483 4.04237C26.7739 3.34301 27.3709 2.9251 27.9765 3.15538C28.4029 3.31743 28.5735 3.65858 28.5735 4.09355C28.5906 4.65645 28.5906 5.21082 28.5906 5.82489Z" fill="#2EAF00"/>
</svg>
