<svg width="26" height="30" viewBox="0 0 26 30" fill="none" xmlns="http://www.w3.org/2000/svg">
<g clip-path="url(#clip0_137_3514)">
<path d="M13.3815 2.40292C12.6152 1.86396 11.8295 1.48733 10.9724 1.27954C10.388 1.13668 9.78406 1.07824 9.18017 1.01331C8.82302 0.974347 8.61523 0.812009 8.62173 0.513308C8.63471 0.234087 8.84251 0.0522686 9.18666 0.0587622C10.9659 0.104217 12.5763 0.688633 14.0308 1.69513C14.2126 1.825 14.362 1.86396 14.5893 1.81201C16.0828 1.46785 17.4074 2.64318 17.2646 4.16915C17.2516 4.30552 17.323 4.48733 17.4204 4.58474C18.8425 5.97435 20.2776 7.36396 21.7126 8.73409C21.823 8.83799 22.0113 8.90941 22.1607 8.91591C23.4529 8.96136 24.362 9.94188 24.2971 11.2276C24.2906 11.351 24.3165 11.4873 24.3685 11.5977C25.1672 13.2925 25.3945 15.0653 25.0958 16.9094C25.0373 17.2666 24.8295 17.4614 24.5503 17.4224C24.2516 17.3834 24.1152 17.1302 24.1737 16.7601C24.3815 15.4354 24.2971 14.1367 23.8425 12.7731C23.7646 12.9419 23.7191 13.0393 23.6802 13.1432C22.7841 15.4094 21.6737 17.5458 20.1087 19.4354C18.7906 21.0263 17.2321 22.3055 15.2841 23.0523C14.9204 23.1886 14.5438 23.299 14.1737 23.4029C13.4399 23.6172 13.0373 24.1237 13.0373 24.9029C13.0308 26.377 13.0373 27.8445 13.0373 29.3185C13.0373 29.4159 13.0438 29.5133 13.0308 29.6107C12.9919 29.8445 12.849 29.9808 12.6152 29.9938C12.375 30.0068 12.1932 29.9029 12.1347 29.6562C12.1087 29.5393 12.1087 29.4224 12.1087 29.299C12.1087 27.8705 12.1022 26.4419 12.1087 25.0133C12.1152 23.6302 12.7516 22.812 14.0828 22.4549C16.1022 21.9224 17.7061 20.7536 19.0698 19.2146C20.9854 17.0458 22.2321 14.5068 23.1802 11.8055C23.2906 11.5003 23.375 11.1497 23.349 10.8315C23.2971 10.299 22.836 9.9224 22.2841 9.85747C21.7971 9.80552 21.2971 10.1302 21.0893 10.6237C20.6802 11.6107 20.31 12.6172 19.8425 13.5782C19.0568 15.2081 18.0308 16.6756 16.6542 17.8769C14.7191 19.5588 12.5178 20.3705 9.91393 20.1172C8.18017 19.9484 6.53082 18.7146 6.2516 16.7081C5.98536 14.7666 6.46588 13.0003 7.46588 11.351C8.66718 9.38344 10.3685 7.9224 12.323 6.76006C13.3815 6.13669 14.5048 5.6237 15.6022 5.07175C16.1022 4.8185 16.4074 4.325 16.3555 3.8185C16.2971 3.27954 15.9269 2.8185 15.3945 2.72759C15.1412 2.68214 14.823 2.68863 14.6152 2.80552C12.7321 3.88993 10.81 4.91591 9.01134 6.13019C5.90744 8.23409 3.88796 11.1951 2.65419 14.7146C1.84251 17.0198 1.42043 19.3899 1.42043 21.8315C1.42043 24.3185 1.42043 26.812 1.42043 29.299C1.42043 29.3964 1.42692 29.4938 1.41393 29.5912C1.37497 29.8185 1.23212 29.9614 0.99835 29.9808C0.771077 30.0003 0.595752 29.9029 0.524324 29.6757C0.491856 29.5653 0.478869 29.4419 0.478869 29.325C0.478869 26.7276 0.446402 24.1302 0.485363 21.5328C0.550298 17.5263 1.58277 13.7795 3.70614 10.364C5.27108 7.84448 7.38147 5.87045 9.9529 4.38993C11.0633 3.75357 12.1932 3.09123 13.3815 2.40292ZM7.59575 13.1821C9.72562 11.6627 11.888 12.4029 12.9334 13.5133C14.323 14.9938 14.3555 16.7406 13.0178 18.8575C13.0373 18.864 13.0568 18.8834 13.0698 18.8834C13.1737 18.8575 13.2776 18.825 13.375 18.7925C14.6996 18.2925 15.81 17.4873 16.7581 16.4549C18.2061 14.8899 19.1672 13.0328 19.9139 11.0588C20.1542 10.4224 20.323 9.75357 20.9464 9.31201C19.5503 7.96785 18.1867 6.64318 16.875 5.37695C16.4464 5.6237 16.0893 5.86396 15.7126 6.05876C14.9724 6.44188 14.2061 6.77305 13.4789 7.17565C11.6802 8.16915 10.0698 9.38993 8.81004 11.0328C8.32303 11.6627 7.91393 12.3445 7.59575 13.1821ZM13.0633 16.2211C13.0698 14.5847 11.7646 13.2795 10.1282 13.2536C8.48536 13.2341 7.08926 14.6302 7.1477 16.338C7.19965 17.8185 8.49835 19.1172 9.98536 19.1692C11.6412 19.2341 13.0828 17.8769 13.0633 16.2211Z" fill="#2EAF00" stroke="#2EAF00" stroke-width="0.5"/>
<path d="M7.99836 3.21414C7.68667 3.22064 7.44641 2.98038 7.44641 2.66219C7.44641 2.357 7.66719 2.12973 7.96589 2.11674C8.28407 2.10375 8.53082 2.33103 8.53732 2.64921C8.5503 2.9609 8.31004 3.21414 7.99836 3.21414Z" fill="#2EAF00" stroke="#2EAF00" stroke-width="0.5"/>
<path d="M23.81 19.0715C23.797 19.3897 23.5568 19.604 23.2321 19.591C22.9334 19.578 22.7126 19.3378 22.7191 19.0391C22.7256 18.7339 22.9789 18.4936 23.2841 18.5001C23.5893 18.5066 23.823 18.7534 23.81 19.0715Z" fill="#2EAF00" stroke="#2EAF00" stroke-width="0.5"/>
<path d="M5.10227 5.13641C5.10227 5.4416 4.84902 5.68835 4.54383 5.68835C4.23863 5.68186 4.00487 5.43511 4.01136 5.11692C4.01786 4.81173 4.24513 4.59745 4.55032 4.59095C4.86851 4.58446 5.10227 4.81822 5.10227 5.13641Z" fill="#2EAF00" stroke="#2EAF00" stroke-width="0.5"/>
<path d="M22.5892 20.7863C22.5827 21.098 22.336 21.3383 22.0308 21.3318C21.7451 21.3253 21.4983 21.0721 21.4918 20.7863C21.4853 20.4811 21.7321 20.2344 22.0438 20.2344C22.3684 20.2344 22.5957 20.4617 22.5892 20.7863Z" fill="#2EAF00" stroke="#2EAF00" stroke-width="0.5"/>
<path d="M20.8425 23.0587C20.5308 23.0652 20.2841 22.8185 20.2841 22.5068C20.2841 22.2016 20.5373 21.9419 20.836 21.9484C21.1217 21.9549 21.375 22.2016 21.3879 22.4873C21.4009 22.7795 21.1412 23.0522 20.8425 23.0587Z" fill="#2EAF00" stroke="#2EAF00" stroke-width="0.5"/>
<path d="M6.27107 3.35742C6.58925 3.35742 6.82951 3.59768 6.82302 3.90937C6.81652 4.20158 6.58276 4.44184 6.29055 4.44833C5.98535 4.45482 5.72561 4.20807 5.71912 3.90937C5.71263 3.60418 5.95938 3.35742 6.27107 3.35742Z" fill="#2EAF00" stroke="#2EAF00" stroke-width="0.5"/>
</g>
<defs>
<clipPath id="clip0_137_3514">
<rect width="24.8052" height="30" fill="white" transform="translate(0.446411)"/>
</clipPath>
</defs>
</svg>
