<svg width="49" height="50" viewBox="0 0 49 50" fill="none" xmlns="http://www.w3.org/2000/svg">
<path d="M30.8232 0.000295214C39.7887 0.0102375 47.4157 6.55229 48.7837 15.4109C50.2107 24.6374 44.3059 33.6551 35.3207 35.9617C30.9315 37.0852 26.7194 36.598 22.6648 34.5698C22.4384 34.4604 22.1333 34.4107 21.8775 34.4505C19.5943 34.7686 17.3111 35.1067 15.0181 35.4348C14.2996 35.5342 13.7682 34.9178 13.9355 34.1721C14.3587 32.2135 14.7819 30.2648 15.2346 28.3161C15.333 27.8885 15.2936 27.5406 15.0771 27.1528C9.44786 16.8625 14.6834 4.017 25.8337 0.716143C27.4575 0.238911 29.1207 -0.0295318 30.8232 0.000295214ZM20.3619 32.631C20.047 32.3328 19.8403 32.1439 19.6435 31.945C19.24 31.5175 19.24 30.9707 19.614 30.563C19.9978 30.1554 20.5292 30.1156 20.9721 30.4934C21.3067 30.7818 21.6117 31.1099 21.9464 31.4081C22.4089 31.8257 22.8222 32.3427 23.3537 32.631C26.6702 34.4306 30.2131 35.0073 33.9134 34.2815C42.9182 32.5018 48.577 23.7923 46.6186 14.7746C44.5617 5.26973 34.9468 -0.327802 25.8337 2.81398C19.4663 5.01123 15.7955 9.64436 14.8803 16.3753C14.3882 19.9943 15.2149 23.4145 17.0847 26.5563C17.3603 27.0236 17.4489 27.471 17.3209 28.0178C16.947 29.5887 16.6123 31.1795 16.2679 32.7603C16.2384 32.8895 16.2482 33.0287 16.2285 33.1978C17.626 33.0088 18.9349 32.8299 20.3619 32.631Z" fill="#00B2FF"/>
<path d="M8.4437 36.8766C9.54593 39.0341 11.4355 40.6447 13.6399 41.6688C14.7618 40.605 15.8149 39.6306 16.8285 38.6265C18.2358 37.2445 19.9581 37.145 21.5228 38.3481C22.7628 39.3025 24.0324 40.2073 25.2921 41.1319C27.2308 42.5537 27.4178 44.8305 25.7349 46.5505C25.1149 47.1868 24.4457 47.7833 23.8651 48.4594C23.0778 49.3741 22.0641 49.7619 20.9225 49.8812C14.9193 50.5075 9.78212 48.6086 5.51098 44.3334C3.08018 41.9074 1.28905 39.0639 0.472224 35.6636C-0.128097 33.1979 -0.246193 30.7124 0.619844 28.2765C0.856036 27.6302 1.27921 27.0237 1.72207 26.4968C2.35192 25.7511 3.07033 25.0949 3.75923 24.4089C5.34368 22.838 7.69576 22.9872 9.05386 24.7569C10.0085 25.9997 10.9729 27.2425 11.9177 28.4853C13.1971 30.1556 13.079 31.8856 11.6224 33.3968C10.5793 34.5103 9.56561 35.6537 8.4437 36.8766ZM16.0314 42.4344C16.5825 42.5835 17.1041 42.7128 17.6158 42.8718C18.226 43.0508 18.5015 43.5181 18.3441 44.0749C18.1768 44.6615 17.7044 44.9299 17.0844 44.7708C16.4939 44.6217 15.9133 44.4527 15.3228 44.3135C11.0713 43.2894 8.08941 40.6646 6.11131 36.8169C5.63892 35.8923 5.24527 34.9279 4.82209 33.9734C4.52685 33.3073 4.67447 32.7306 5.2059 32.492C5.75702 32.2335 6.26877 32.4721 6.58369 33.1482C6.83956 33.6951 7.0856 34.2419 7.35131 34.8384C7.51862 34.6992 7.64655 34.6098 7.74497 34.5103C8.59132 33.6553 9.44752 32.8102 10.284 31.9452C10.904 31.3089 10.9336 30.6527 10.3824 29.9468C9.37863 28.6444 8.36497 27.332 7.35131 26.0295C6.70178 25.2043 5.86527 25.1446 5.11733 25.8903C4.43828 26.5664 3.74939 27.2325 3.1097 27.9384C2.83414 28.2467 2.58811 28.6245 2.45033 29.0122C1.9189 30.593 1.86969 32.2236 2.09604 33.8641C2.47001 36.469 3.52304 38.7756 5.07797 40.8535C8.75862 45.7551 13.6006 48.2705 19.7415 48.022C20.4895 47.9921 21.3752 47.9027 21.9362 47.4851C22.9203 46.7593 23.7273 45.7949 24.554 44.8802C25.1248 44.2439 25.0263 43.3888 24.3867 42.9116C22.9793 41.8577 21.5524 40.8237 20.1254 39.7897C19.6431 39.4417 18.9739 39.4218 18.5704 39.8195C17.7142 40.6249 16.9072 41.5197 16.0314 42.4344Z" fill="#00B2FF"/>
<path d="M30.2123 20.273C30.2123 19.925 30.2025 19.577 30.2123 19.229C30.232 18.5629 30.5765 18.2348 31.2752 18.2049C32.9187 18.1254 34.2768 17.1312 34.7492 15.6001C35.2216 14.0888 34.9067 12.7267 33.7847 11.6331C32.6432 10.5295 31.2654 10.2312 29.7892 10.8178C28.2736 11.4243 27.4961 12.6174 27.3584 14.2479C27.2993 15.0135 26.886 15.4211 26.266 15.3217C25.7542 15.2421 25.4393 14.8544 25.4295 14.2678C25.3803 11.5038 27.7619 8.83927 30.547 8.56088C33.6765 8.25267 36.3829 10.3008 36.9241 13.4028C37.4359 16.3656 35.5562 19.2688 32.653 19.9349C32.2397 20.0343 32.1117 20.1934 32.1511 20.5911C32.1806 20.9192 32.1609 21.2572 32.1117 21.5754C32.0231 22.1123 31.6295 22.4006 31.0981 22.3608C30.606 22.3211 30.2616 21.9731 30.2419 21.4561C30.2025 21.0683 30.2222 20.6706 30.2123 20.273Z" fill="#00B2FF"/>
<path d="M25.6854 26.4169C24.9374 26.4169 24.3371 25.8203 24.3273 25.0747C24.3174 24.3091 24.9473 23.6728 25.705 23.6827C26.4431 23.7026 27.0533 24.329 27.0435 25.0647C27.0336 25.8104 26.4333 26.4169 25.6854 26.4169Z" fill="#00B2FF"/>
<path d="M38.1646 25.0546C38.1646 25.8102 37.5741 26.4167 36.8262 26.4267C36.0585 26.4366 35.4385 25.8102 35.4484 25.0447C35.4582 24.299 36.0782 23.6826 36.8163 23.6925C37.5544 23.6925 38.1646 24.3089 38.1646 25.0546Z" fill="#00B2FF"/>
<path d="M29.9375 25.0647C29.9375 24.3091 30.5181 23.6927 31.2562 23.6827C31.9648 23.6728 32.6242 24.3091 32.634 25.0249C32.6537 25.7905 32.0337 26.4169 31.2759 26.4169C30.5181 26.4169 29.9375 25.8303 29.9375 25.0647Z" fill="#00B2FF"/>
</svg>
