<svg width="9" height="12" viewBox="0 0 9 12" fill="none" xmlns="http://www.w3.org/2000/svg">
<path d="M4.49998 12C3.68801 11.2819 2.93539 10.4947 2.24999 9.64649C1.22142 8.37275 5.68066e-07 6.47581 5.68066e-07 4.66818C-0.000911103 2.78027 1.09558 1.07785 2.77782 0.355333C4.46005 -0.36718 6.39644 0.0326285 7.68339 1.36819C8.52968 2.24175 9.00376 3.43003 8.99998 4.66818C8.99998 6.47581 7.77853 8.37275 6.74997 9.64649C6.06457 10.4947 5.31195 11.2819 4.49998 12ZM4.49998 1.33553C2.72567 1.33774 1.28783 2.82852 1.28571 4.66818C1.28571 5.44535 1.62449 6.79107 3.23677 8.79133C3.63414 9.28326 4.05577 9.75357 4.49998 10.2004C4.94422 9.7541 5.36606 9.28447 5.76383 8.79333C7.37546 6.79041 7.71425 5.44469 7.71425 4.66818C7.71212 2.82852 6.27429 1.33774 4.49998 1.33553ZM4.49998 6.66777C3.43486 6.66777 2.57142 5.77252 2.57142 4.66818C2.57142 3.56384 3.43486 2.66859 4.49998 2.66859C5.56509 2.66859 6.42854 3.56384 6.42854 4.66818C6.42854 5.1985 6.22535 5.70711 5.86368 6.0821C5.502 6.4571 5.01146 6.66777 4.49998 6.66777Z" fill="#00B2FF"/>
</svg>
