<svg width="30" height="30" viewBox="0 0 30 30" fill="none" xmlns="http://www.w3.org/2000/svg">
<path d="M12.0001 0.0728535C18.1602 0.0656071 23.1918 4.31199 24.1894 10.1598C25.2962 16.6743 20.7379 22.9859 14.1991 24.0004C11.8253 24.37 9.53889 24.0946 7.33258 23.1381C7.17239 23.0656 6.95394 23.0511 6.77918 23.0946C5.38841 23.4642 3.99763 23.8627 2.61414 24.2468C1.3253 24.6091 0.225786 23.9642 0.0801553 22.725C0.0437476 22.4062 0.123845 22.0511 0.240349 21.7395C0.655398 20.5946 1.09957 19.4569 1.54375 18.3265C1.63113 18.1091 1.63841 17.9352 1.5219 17.7178C-1.86402 11.2323 1.15054 3.39894 8.02433 0.819231C9.3787 0.311984 10.7768 0.0583607 12.0001 0.0728535ZM1.91511 22.5149C2.0753 22.4787 2.1554 22.4642 2.23549 22.4424C3.80103 22.0076 5.35928 21.5801 6.92481 21.1308C7.1651 21.0584 7.35443 21.0946 7.57287 21.2033C9.45151 22.1526 11.4467 22.5221 13.5292 22.2395C19.4127 21.4497 23.3374 16.1091 22.3253 10.2975C21.3423 4.63807 15.6481 0.862709 10.0268 2.14532C3.11656 3.71778 -0.167417 11.3989 3.48792 17.4352C3.6554 17.7105 3.68452 17.9279 3.56074 18.2323C3.00006 19.6381 2.47579 21.0439 1.91511 22.5149Z" fill="black"/>
<path d="M8.70142 25.6666C9.71355 25.7898 10.7111 25.9057 11.7014 26.0289C11.8179 26.0434 11.9344 26.0941 12.0291 26.1521C15.3932 28.2681 18.8665 28.4565 22.4417 26.7536C22.6674 26.6449 22.864 26.6376 23.097 26.7028C24.6553 27.1449 26.2208 27.5796 27.7864 28.0144C27.8519 28.0362 27.9247 28.0434 28.0485 28.0724C28.0121 27.9492 27.9903 27.8478 27.9538 27.7608C27.4369 26.4057 26.9199 25.0579 26.3956 23.7101C26.3082 23.4854 26.3228 23.3188 26.4466 23.1086C28.5946 19.4275 28.5728 15.7608 26.3592 12.1086C26.2864 11.9927 26.2427 11.8477 26.2281 11.7101C26.1116 10.7318 26.0024 9.74629 25.8859 8.67383C26.4538 9.326 27.0582 9.90571 27.5242 10.5796C30.3349 14.6304 30.6335 18.884 28.4854 23.3188C28.4053 23.4782 28.398 23.7173 28.4563 23.884C28.8713 25.0289 29.3082 26.1666 29.7597 27.297C30.0582 28.0507 29.9927 28.7463 29.4393 29.3478C28.8932 29.9347 28.2087 30.0724 27.4441 29.8405C27.0873 29.7318 26.7233 29.6376 26.3592 29.5362C25.3543 29.2608 24.3495 28.9927 23.3519 28.6956C23.0679 28.6086 22.8276 28.6376 22.5582 28.7536C17.9126 30.7681 12.4223 29.6376 8.94899 25.9492C8.85433 25.8478 8.76695 25.7463 8.70142 25.6666Z" fill="black"/>
<path d="M11.3155 13.7397C11.3155 12.8412 11.6577 12.0875 12.3203 11.5006C12.7427 11.1238 13.2305 10.8194 13.682 10.4861C13.9733 10.2687 14.2936 10.0875 14.5485 9.83392C15.1602 9.23971 15.131 8.5658 14.5194 7.96435C13.5436 7.00783 11.9417 7.00058 10.9369 7.96435C10.682 8.21073 10.4708 8.52232 10.2669 8.81218C9.92472 9.29769 9.40044 9.45711 8.94899 9.18174C8.49753 8.90638 8.38103 8.3629 8.68685 7.84841C9.51695 6.46435 10.682 5.53681 12.3422 5.42087C13.9514 5.30492 15.2985 5.87739 16.2669 7.18898C17.097 8.31942 17.0534 9.73247 16.1359 10.7977C15.7791 11.2107 15.3203 11.5441 14.8835 11.8846C14.5412 12.1528 14.1626 12.3702 13.8058 12.6238C13.3616 12.9354 13.1432 13.3629 13.1359 13.9136C13.1286 14.5223 12.7427 14.8847 12.1893 14.8702C11.6504 14.8557 11.3082 14.4571 11.3082 13.8412C11.3155 13.8122 11.3155 13.776 11.3155 13.7397Z" fill="black"/>
<path d="M12.7065 19.5148C11.9273 19.5148 11.3157 18.9206 11.3157 18.1452C11.3157 17.3771 11.9273 16.7612 12.6919 16.7539C13.4565 16.7539 14.0827 17.3698 14.0827 18.1307C14.0827 18.9133 13.4856 19.5148 12.7065 19.5148Z" fill="black"/>
</svg>
