<svg width="40" height="44" viewBox="0 0 40 44" fill="none" xmlns="http://www.w3.org/2000/svg">
<path d="M12.3515 36.299C10.9848 36.7914 9.66902 37.2583 8.36172 37.7336C5.90841 38.625 3.4551 39.5163 0.993305 40.3907C0.764103 40.4671 0.450011 40.4671 0.246276 40.3652C0.101964 40.2973 -0.0253705 39.9662 0.0170744 39.8049C0.0764971 39.6012 0.288721 39.3635 0.492456 39.2871C1.9186 38.7438 3.35324 38.243 4.78787 37.7251C8.03066 36.5537 11.2649 35.3822 14.5077 34.2277C14.8303 34.1088 14.9661 33.9645 14.9576 33.5995C14.9322 32.5554 14.9322 31.5027 14.9576 30.4586C14.9661 30.1445 14.8643 29.9577 14.5841 29.8304C14.3125 29.7031 14.0663 29.5418 13.8032 29.3975C12.0035 28.4128 11.0782 26.8762 10.9763 24.8304C10.9339 24.0664 10.9254 23.3024 10.8575 22.5469C10.832 22.2837 10.7301 21.9951 10.5689 21.7914C9.48227 20.3652 8.98991 18.7184 8.67582 16.9866C8.34475 15.136 8.36172 13.2684 8.42964 11.4009C8.4551 10.6453 8.56546 10.5265 9.20213 10.4331C9.54169 9.2956 9.81334 8.17505 10.2038 7.08847C10.6877 5.73023 11.4602 4.53329 12.4279 3.46368C12.6402 3.22599 12.8694 3.00527 13.2344 3.14959C13.6079 3.2939 13.6673 3.5995 13.6588 3.94755C13.6503 4.14279 13.6588 4.33804 13.6588 4.63515C13.8371 4.51631 13.956 4.4484 14.0748 4.36351C15.2802 3.49763 16.4857 2.62327 17.6911 1.7574C17.9627 1.56215 18.2174 1.30748 18.6079 1.48575C18.9984 1.66402 18.9644 2.02055 18.9729 2.36011C18.9729 2.41105 18.9899 2.47047 19.0069 2.56385C19.1257 2.50442 19.2191 2.46198 19.304 2.40256C20.8745 1.23957 22.6486 0.526495 24.5247 0.0596018C25.1699 -0.101689 25.467 0.144491 25.467 0.798142C25.467 1.20561 25.467 1.61308 25.467 2.07998C26.1291 1.97811 26.7573 1.89322 27.377 1.79135C28.3363 1.63855 29.2955 1.47726 30.2633 1.32446C31.0103 1.20561 31.3074 1.54517 31.1121 2.27522C30.9848 2.74212 30.8575 3.20052 30.7301 3.65892C30.7217 3.70137 30.7217 3.74381 30.7217 3.86266C30.9509 3.78626 31.1546 3.70986 31.3583 3.64195C31.995 3.43821 32.377 3.73532 32.2666 4.39746C31.9865 6.11224 31.6724 7.81852 31.3668 9.53329C31.3498 9.64365 31.3413 9.754 31.3244 9.91529C31.4517 9.86436 31.5281 9.81342 31.613 9.80494C31.8677 9.78796 32.1733 9.71156 32.3515 9.82191C32.5128 9.92378 32.6147 10.2633 32.5807 10.4756C32.4449 11.4688 32.2751 12.4535 32.0799 13.4382C31.6554 15.6284 31.1885 17.81 30.3736 19.8983C30.1189 20.552 29.7539 21.1632 29.4568 21.7998C29.3719 21.9866 29.304 22.1903 29.2955 22.3941C29.2276 23.4552 29.2616 24.5248 29.1003 25.5605C28.8456 27.1734 27.9543 28.4212 26.5451 29.2786C26.1206 29.5333 25.6962 29.788 25.2463 30.0002C24.9237 30.153 24.8473 30.3652 24.8473 30.6963C24.8643 31.6725 24.8728 32.6487 24.8473 33.625C24.8388 33.9476 24.9407 34.0919 25.2463 34.2022C29.8133 35.8491 34.3804 37.5044 38.9475 39.1683C39.0918 39.2192 39.2446 39.2701 39.3804 39.3381C39.72 39.4993 39.8218 39.788 39.6945 40.119C39.5672 40.4586 39.2785 40.5859 38.939 40.4756C38.3787 40.2888 37.8184 40.0766 37.2666 39.8729C34.1512 38.7438 31.0273 37.6063 27.9118 36.4773C27.759 36.4178 27.5977 36.3754 27.4025 36.3075C27.3346 36.6386 27.2836 36.9187 27.2072 37.2073C26.5196 39.8304 24.5332 41.5707 21.8337 41.9527C20.2208 42.1819 18.6164 42.1564 17.0544 41.6555C14.6605 40.883 13.1665 39.2277 12.5043 36.8168C12.4449 36.6555 12.4025 36.5027 12.3515 36.299ZM14.6266 12.9883C13.7267 14.0494 12.8439 15.0681 11.995 16.1122C11.8507 16.2905 11.7573 16.5706 11.7743 16.7914C11.9016 19.4569 12.0714 22.1309 12.1987 24.7965C12.2751 26.333 12.9373 27.4959 14.2785 28.2599C15.6877 29.0664 17.1138 29.8559 18.5315 30.6453C19.5247 31.1971 20.5349 31.2141 21.5281 30.6708C23.0052 29.8644 24.4738 29.0579 25.9254 28.209C27.0969 27.5214 27.8354 26.4518 27.9118 25.119C28.0816 22.1988 28.1325 19.2701 28.2174 16.3414C28.2174 16.2226 28.1071 16.0528 28.0052 15.9764C27.5638 15.6453 27.1054 15.3397 26.6554 15.0257C26.1461 14.6776 25.6368 14.3211 25.1104 13.956C24.8133 14.3041 24.5587 14.6182 24.287 14.9238C23.9814 15.2718 23.6079 15.3397 23.3278 15.102C23.0307 14.8474 23.0391 14.5163 23.3532 14.1343C23.6588 13.7608 23.9729 13.3958 24.2785 13.0307C24.8812 12.3177 25.4585 11.5876 26.0867 10.8915C26.231 10.7302 26.5366 10.6114 26.7403 10.6453C26.9186 10.6793 27.1393 10.934 27.1818 11.1207C27.2242 11.299 27.0884 11.5537 26.961 11.715C26.6385 12.1479 26.2734 12.5554 25.8999 12.9968C26.961 13.7353 27.9627 14.4484 28.9814 15.1275C29.338 15.3652 29.4823 15.6453 29.4738 16.0783C29.4483 16.9611 29.4653 17.844 29.4653 18.8032C30.2717 16.4094 30.7386 13.9985 31.1716 11.5282C31.0273 11.5876 30.9339 11.6131 30.8575 11.664C30.5943 11.8338 30.3312 11.8847 30.068 11.681C29.8133 11.4858 29.7964 11.2226 29.8558 10.917C30.102 9.60969 30.3227 8.30239 30.5519 6.99509C30.6537 6.40086 30.7471 5.80663 30.8575 5.136C30.5179 5.25485 30.2802 5.38218 30.0256 5.41614C29.7964 5.4501 29.4653 5.45858 29.3295 5.32276C29.1767 5.16996 29.1257 4.83889 29.1682 4.6012C29.2361 4.15977 29.4059 3.73532 29.5247 3.2939C29.5756 3.09865 29.6096 2.90341 29.6605 2.65723C28.124 2.90341 26.6639 3.13261 25.1953 3.3703C24.4823 3.48914 24.2106 3.26843 24.2021 2.55536C24.2021 2.19033 24.2021 1.82531 24.2021 1.4433C24.1088 1.4433 24.0493 1.42633 23.9984 1.4433C22.0714 2.03753 20.2717 2.86096 18.888 4.38897C18.6673 4.63515 18.4211 4.76249 18.1071 4.65213C17.7675 4.53329 17.7166 4.24466 17.725 3.92208C17.7335 3.71835 17.725 3.5231 17.725 3.2175C17.3091 3.51461 16.995 3.73532 16.6894 3.95604C15.6113 4.72853 14.5332 5.51801 13.4551 6.28201C12.9458 6.64704 12.4789 6.41784 12.394 5.80663C12.3855 5.74721 12.377 5.68779 12.36 5.61139C12.3091 5.64534 12.2836 5.65383 12.2666 5.6793C12.2072 5.77268 12.1393 5.86606 12.0884 5.96792C11.1037 7.64025 10.5604 9.45689 10.467 11.3924C10.433 11.9781 10.3481 12.4535 9.63507 12.4026C9.4568 14.3805 9.89823 18.2345 10.6707 19.372C10.6028 18.3279 10.5264 17.3262 10.484 16.333C10.4755 16.1377 10.5434 15.9 10.6622 15.7557C11.7573 14.4399 12.8694 13.1411 13.9814 11.8423C14.2616 11.5197 14.5672 11.4688 14.9152 11.715C15.8914 12.3856 16.8677 13.0732 17.8354 13.7608C17.9627 13.8542 18.1325 14.024 18.124 14.1428C18.1155 14.372 18.0476 14.6521 17.8948 14.8049C17.6741 15.0256 17.3685 14.9323 17.1223 14.754C16.3074 14.1598 15.484 13.591 14.6266 12.9883ZM16.1716 30.7387C16.1716 30.9934 16.1716 31.1462 16.1716 31.299C16.1716 32.2922 16.1631 33.2769 16.1801 34.2701C16.1885 34.7285 16.0018 35.0087 15.5604 35.153C14.9831 35.3397 14.4144 35.5605 13.8456 35.7642C13.6503 35.8321 13.54 35.9085 13.5909 36.1547C13.9899 37.9543 14.9152 39.3635 16.613 40.1615C18.3447 40.9764 20.1699 41.0443 22.0035 40.6538C24.3464 40.153 25.7132 38.6759 26.1291 36.3245C26.1885 36.0019 26.1546 35.7982 25.7811 35.6963C25.2633 35.552 24.7709 35.3397 24.27 35.153C23.6928 34.9408 23.6079 34.8304 23.6079 34.2362C23.6079 33.2854 23.6079 32.3431 23.6079 31.3924C23.6079 31.265 23.5909 31.1292 23.5824 30.9425C23.1071 31.2056 22.6996 31.4348 22.2921 31.6555C20.7811 32.4959 19.2785 32.4875 17.7845 31.6216C17.2751 31.3414 16.7658 31.0698 16.1716 30.7387Z" fill="#212121"/>
<path d="M20.0679 23.9304C21.1291 23.9304 22.1902 23.9219 23.2428 23.9304C23.8965 23.9389 24.1002 24.185 24.0153 24.8302C23.7606 26.8251 22.6486 28.0475 20.8489 28.3361C18.9983 28.6332 17.2751 27.7249 16.4686 26.0017C16.2903 25.6197 16.1545 25.2122 16.0611 24.8047C15.9253 24.236 16.18 23.9304 16.7657 23.9219C17.8693 23.9219 18.9729 23.9304 20.0679 23.9304ZM22.6656 25.1782C20.9338 25.1782 19.2275 25.1782 17.5043 25.1782C17.8353 26.4686 19.0068 27.2156 20.5094 27.1307C21.6469 27.0543 22.5297 26.2818 22.6656 25.1782Z" fill="#212121"/>
<path d="M20.2718 14.3038C20.2633 14.6263 20.0935 14.8301 19.7539 14.898C19.4229 14.9574 19.1427 14.7622 19.0578 14.3717C18.8626 13.4634 18.6928 12.5465 18.5146 11.6297C18.3787 10.9676 18.2429 10.3055 18.1156 9.63483C18.0477 9.2783 18.2514 8.97269 18.5825 8.89629C18.905 8.81989 19.2361 9.01514 19.3125 9.38016C19.6351 10.9676 19.9492 12.5635 20.2633 14.151C20.2718 14.1934 20.2718 14.2359 20.2718 14.3038Z" fill="#212121"/>
<path d="M25.951 18.752C25.9595 19.1934 25.586 19.4396 25.2719 19.2783C25.1361 19.2104 25.0172 19.1 24.8899 19.0067C24.0325 18.387 23.2261 18.4209 22.4111 19.0915C22.2668 19.2104 22.0631 19.3207 21.8933 19.3038C21.749 19.2868 21.5537 19.1 21.5198 18.9642C21.4858 18.8029 21.5792 18.5737 21.6896 18.4464C22.4196 17.6484 23.625 17.3683 24.6522 17.7842C25.0257 17.937 25.3653 18.1832 25.6963 18.4209C25.8237 18.5143 25.9001 18.6841 25.951 18.752Z" fill="#212121"/>
<path d="M16.4266 17.5977C17.2331 17.6061 17.9037 17.9457 18.4895 18.4635C18.7102 18.6588 18.7526 18.905 18.5743 19.1426C18.3791 19.3973 18.1244 19.3973 17.8698 19.2106C17.7339 19.1087 17.5981 18.9983 17.4623 18.9134C16.6813 18.4211 15.9088 18.472 15.2042 19.0662C15.1533 19.1087 15.1024 19.1681 15.0429 19.2106C14.8052 19.3973 14.5675 19.4058 14.3638 19.1766C14.1686 18.9559 14.194 18.7012 14.3893 18.489C14.9496 17.9202 15.6202 17.6061 16.4266 17.5977Z" fill="#212121"/>
<path d="M21.8247 14.9151C21.256 14.8981 20.9589 14.4397 21.1881 14.0238C21.5871 13.2767 22.02 12.5467 22.4614 11.8251C22.6567 11.511 22.9793 11.4686 23.2764 11.6554C23.5905 11.8421 23.6669 12.1392 23.4886 12.4618C23.0811 13.1919 22.6652 13.9134 22.2237 14.618C22.1304 14.7708 21.9096 14.8557 21.8247 14.9151Z" fill="#212121"/>
<path d="M16.4682 21.7485C15.8655 21.757 15.3816 21.2901 15.3732 20.6874C15.3647 20.0846 15.874 19.5668 16.4767 19.5753C17.0625 19.5838 17.5548 20.0846 17.5548 20.6704C17.5463 21.2646 17.0709 21.74 16.4682 21.7485Z" fill="#212121"/>
<path d="M24.7966 20.6875C24.7881 21.2987 24.3297 21.7487 23.7185 21.7487C23.0903 21.7487 22.6319 21.2648 22.6489 20.6366C22.6659 20.0424 23.1667 19.5585 23.744 19.584C24.3467 19.6009 24.8051 20.0848 24.7966 20.6875Z" fill="#212121"/>
</svg>
