<svg width="40" height="44" viewBox="0 0 40 44" fill="none" xmlns="http://www.w3.org/2000/svg">
<g clip-path="url(#clip0_120_341)">
<path d="M27.4378 37.6146C27.3071 38.1287 27.2113 38.5992 27.0544 39.0523C26.3661 41.0215 25.0156 42.3371 23.0203 42.947C20.9378 43.5831 18.8293 43.5657 16.773 42.8338C14.4902 42.0322 13.1135 40.368 12.4862 38.0503C12.4513 37.9109 12.4164 37.7802 12.3642 37.6059C11.2228 38.0154 10.1249 38.4075 9.02706 38.8083C6.35214 39.7755 3.67723 40.7252 1.01974 41.7098C0.322691 41.9712 -0.130389 41.4745 0.0351598 41.0476C0.113578 40.8298 0.366257 40.6119 0.592797 40.5248C3.54653 39.4357 6.50027 38.3727 9.46271 37.3097C11.1531 36.6998 12.8434 36.0811 14.5337 35.4886C14.8474 35.3841 14.9607 35.236 14.952 34.9049C14.9258 33.8593 14.9345 32.8137 14.952 31.7682C14.9607 31.4545 14.8648 31.2715 14.586 31.1147C13.9848 30.7749 13.3575 30.4438 12.826 30.0081C11.702 29.0932 11.1356 27.856 11.0049 26.4183C10.9527 25.8084 10.8917 25.2072 10.8045 24.606C10.7871 24.4753 10.6477 24.2749 10.5344 24.2488C9.34073 23.9874 8.71339 23.2468 8.60012 22.0444C8.53041 21.295 8.43457 20.5457 8.39972 19.7877C8.35615 18.8902 8.75695 18.2019 9.54113 17.7924C9.90708 17.6007 9.92451 17.3916 9.8548 17.0431C9.55856 15.5531 9.39301 14.0632 9.70668 12.5471C10.1075 10.5954 11.5713 9.34069 13.3749 9.44525C13.8715 9.47139 14.3595 9.65436 14.891 9.76763C14.9781 9.54109 15.0652 9.2797 15.1785 9.01831C15.9191 7.25827 17.4439 6.70934 19.082 7.02301C19.9968 7.19727 20.6155 7.79848 21.025 8.62622C21.5216 9.64565 21.6349 10.7435 21.6697 11.8413C21.6959 12.6081 21.6349 13.3748 21.6087 14.1503C21.539 16.6858 22.7502 18.3413 25.2072 19.0035C27.0109 19.4914 28.7709 19.352 30.4525 18.5156C30.7401 18.3674 31.0712 18.2803 31.289 18.5591C31.4197 18.7334 31.4458 19.0296 31.4284 19.2649C31.4197 19.3782 31.2454 19.5176 31.1147 19.596C28.6402 21.0685 24.7455 20.8158 22.4626 19.0383C20.781 17.7227 20.1885 15.9626 20.3628 13.8802C20.476 12.5471 20.4848 11.214 20.1537 9.89833C19.8139 8.53038 18.9861 7.98145 17.7053 8.2777C17.1389 8.40839 16.712 8.73078 16.4942 9.24485C16.2851 9.73278 16.1544 10.2556 16.0498 10.7783C15.9888 11.0833 15.9714 11.3796 15.6403 11.5364C15.3266 11.6845 15.0914 11.5277 14.8474 11.336C14.3159 10.9265 13.7321 10.6477 13.0438 10.7174C12.1376 10.8045 11.5103 11.2924 11.1618 12.1289C10.7522 13.1047 10.7697 14.1416 10.8481 15.1697C10.8829 15.5967 10.9526 16.0323 11.0311 16.5725C11.1531 16.3809 11.2228 16.2763 11.275 16.1805C12.1376 14.6121 13.2965 13.3574 14.9607 12.6168C15.5444 12.3554 15.9365 12.4251 16.1021 12.7911C16.2851 13.2006 16.0847 13.5055 15.466 13.7756C13.0351 14.8125 11.275 17.9405 11.6148 20.5719C11.8675 22.5323 12.0679 24.4927 12.2858 26.4532C12.4339 27.7863 13.0699 28.8144 14.2201 29.4853C15.6751 30.3305 17.1476 31.1408 18.6202 31.9511C19.5699 32.4739 20.5458 32.5001 21.4955 31.986C23.029 31.1582 24.5451 30.3131 26.0437 29.4331C27.1677 28.7709 27.7515 27.734 27.9083 26.4445C28.0216 25.4773 28.1436 24.5189 28.2743 23.5517C28.3352 23.1161 28.5966 22.907 28.98 22.9418C29.346 22.9767 29.5812 23.2555 29.5289 23.6824C29.3895 24.85 29.2763 26.0175 29.0584 27.1764C28.7709 28.6663 27.917 29.7903 26.6188 30.5745C26.1308 30.862 25.6255 31.1147 25.1463 31.4196C25.0156 31.4981 24.8936 31.7072 24.8849 31.8553C24.8587 32.9183 24.8849 33.9726 24.8674 35.0356C24.8587 35.3492 25.0504 35.4189 25.277 35.4974C29.7903 37.1267 34.295 38.7648 38.8084 40.3941C38.9478 40.4464 39.0785 40.4987 39.2179 40.5509C39.6884 40.7339 39.8627 41.0302 39.732 41.4135C39.61 41.7708 39.244 41.9102 38.7909 41.7446C37.1529 41.1521 35.5235 40.5597 33.8855 39.9672C31.8815 39.244 29.8775 38.5121 27.8822 37.7889C27.7428 37.7018 27.6033 37.6669 27.4378 37.6146ZM13.6014 37.1616C13.9674 39.1568 14.9345 40.6555 16.7817 41.4832C18.3239 42.1803 19.962 42.2326 21.6087 41.9973C24.1007 41.6401 25.6952 40.0804 26.1308 37.6146C26.1918 37.2748 26.1308 37.0831 25.7649 36.9786C25.2247 36.8217 24.7019 36.5952 24.1704 36.4122C23.787 36.2815 23.6128 36.0463 23.6215 35.6368C23.6389 34.6609 23.6302 33.6937 23.6215 32.7179C23.6215 32.5872 23.604 32.4478 23.5866 32.2561C23.0116 32.5698 22.5149 32.866 22.0008 33.1187C20.8333 33.7025 19.6222 33.746 18.4285 33.232C17.8186 32.9706 17.2522 32.6046 16.6684 32.2909C16.5377 32.2212 16.3983 32.1602 16.2154 32.0731C16.2154 33.2755 16.2154 34.3908 16.2154 35.5061C16.2154 36.1334 16.1369 36.238 15.5444 36.4558C14.8997 36.691 14.2636 36.9176 13.6014 37.1616ZM10.2382 18.8379C9.80252 19.0383 9.61955 19.352 9.6544 19.7877C9.71539 20.5544 9.7851 21.3212 9.87223 22.0792C9.91579 22.4887 10.1162 22.8024 10.5867 22.9244C10.4647 21.5477 10.3514 20.2146 10.2382 18.8379Z" fill="#212121"/>
<path d="M3.52051 20.1011C3.5815 15.823 3.99101 12.3552 5.34154 9.05293C6.03859 7.34516 6.93603 5.75938 8.35626 4.53084C9.92462 3.1716 11.7282 2.71852 13.7409 3.32843C14.0285 3.41556 14.1592 3.29358 14.3334 3.12803C16.4681 1.04561 19.0036 -0.095806 22.0097 0.017464C26.2355 0.174299 29.5029 2.02147 31.7073 5.68096C33.2408 8.22518 34.086 11.0221 34.6523 13.9061C35.1838 16.6072 35.3058 19.3431 35.4452 22.079C35.6021 25.146 34.4519 27.6118 32.3782 29.7465C30.714 31.463 28.8407 32.9268 26.8018 34.1814C26.3836 34.4428 26.009 34.3906 25.7998 34.0769C25.582 33.7371 25.704 33.3886 26.1484 33.1097C28.4748 31.6372 30.6443 29.9643 32.3869 27.7948C33.598 26.2874 34.1992 24.6145 34.1731 22.654C34.1208 18.6635 33.7636 14.7164 32.596 10.8827C31.9774 8.82639 31.1148 6.89208 29.8166 5.15818C28.1872 2.97991 25.9654 1.80364 23.334 1.38542C19.9185 0.845206 17.0781 1.94305 14.7778 4.49599C14.499 4.80094 14.2202 4.85322 13.8455 4.7051C11.9635 3.92964 10.3167 4.33915 8.89648 5.73324C7.65922 6.9705 6.87504 8.504 6.27384 10.1421C5.41996 12.4597 5.02787 14.8733 4.87103 17.3303C4.7142 19.7003 4.79262 22.0616 5.22827 24.3967C5.87304 27.8993 7.79863 30.4697 10.9702 32.0729C11.7544 32.4737 12.5908 32.7786 13.4011 33.1272C13.7932 33.3014 13.9501 33.6238 13.8194 33.9636C13.6887 34.286 13.3663 34.4428 12.9829 34.3034C10.7611 33.5192 8.67865 32.4737 7.03188 30.7398C5.22827 28.8316 4.20013 26.5488 3.87774 23.9523C3.67734 22.4275 3.59021 20.894 3.52051 20.1011Z" fill="#212121"/>
<path d="M20.0929 25.1982C21.1646 25.1982 22.245 25.1982 23.3167 25.1982C23.9179 25.1982 24.1444 25.4857 24.0747 26.0869C23.9876 26.8363 23.7698 27.5333 23.3428 28.1519C21.9836 30.1211 18.8382 30.2169 17.1827 28.3523C16.5989 27.6989 16.2504 26.9234 16.0674 26.0695C15.9541 25.5293 16.2242 25.1982 16.7819 25.1982C17.8884 25.1895 18.995 25.1982 20.0929 25.1982ZM17.5661 26.479C17.9146 27.7773 19.2651 28.5963 20.6679 28.3959C21.7658 28.2391 22.6545 27.3852 22.6371 26.479C20.9554 26.479 19.2825 26.479 17.5661 26.479Z" fill="#212121"/>
<path d="M16.4246 17.6182C17.261 17.653 17.9581 17.9754 18.5505 18.5243C18.7597 18.716 18.7945 18.96 18.6203 19.1865C18.4286 19.4305 18.1846 19.4566 17.9319 19.2911C17.8012 19.2039 17.6792 19.0907 17.5485 19.0035C16.7557 18.4633 15.9628 18.5069 15.2396 19.1255C15.196 19.1604 15.1524 19.2039 15.1089 19.2388C14.8736 19.4305 14.6297 19.4653 14.4118 19.2388C14.1766 19.0035 14.2114 18.7334 14.438 18.5069C14.9869 17.9493 15.6578 17.653 16.4246 17.6182Z" fill="#212121"/>
<path d="M24.8323 21.3121C24.841 21.9133 24.3879 22.3925 23.7867 22.4099C23.1768 22.4273 22.6976 21.9742 22.6801 21.373C22.6627 20.7544 23.1419 20.2491 23.7519 20.2403C24.3182 20.2316 24.8148 20.7283 24.8323 21.3121Z" fill="#212121"/>
<path d="M16.4858 22.4099C15.8759 22.4099 15.4228 21.9568 15.4141 21.3382C15.4141 20.737 15.8759 20.2491 16.4683 20.2403C17.0608 20.2316 17.5836 20.7544 17.5749 21.3469C17.5749 21.9394 17.087 22.4099 16.4858 22.4099Z" fill="#212121"/>
</g>
<defs>
<clipPath id="clip0_120_341">
<rect width="40" height="43.4783" fill="white"/>
</clipPath>
</defs>
</svg>
