<svg width="22" height="20" viewBox="0 0 22 20" fill="none" xmlns="http://www.w3.org/2000/svg">
<path d="M10.0986 0.876261C10.4618 0.120304 11.5382 0.120306 11.9014 0.876262L14.2367 5.73741C14.3825 6.04085 14.6712 6.25058 15.0048 6.29546L20.3497 7.01433C21.1809 7.12612 21.5135 8.14986 20.9068 8.72885L17.0052 12.4521C16.7617 12.6845 16.6514 13.0238 16.7118 13.355L17.6798 18.6605C17.8303 19.4855 16.9595 20.1182 16.2214 19.7201L11.4747 17.16C11.1784 17.0002 10.8216 17.0002 10.5253 17.16L5.77865 19.7201C5.04049 20.1182 4.16966 19.4855 4.32019 18.6605L5.28816 13.355C5.34858 13.0238 5.23832 12.6845 4.99478 12.4521L1.09321 8.72885C0.48648 8.14985 0.819112 7.12612 1.65029 7.01433L6.99519 6.29546C7.32882 6.25058 7.61749 6.04085 7.76327 5.73741L10.0986 0.876261Z" fill="url(#paint0_linear_120_351)"/>
<defs>
<linearGradient id="paint0_linear_120_351" x1="11" y1="-1" x2="11" y2="23" gradientUnits="userSpaceOnUse">
<stop offset="0.145833" stop-color="#FFE100"/>
<stop offset="1" stop-color="#EDAA00"/>
</linearGradient>
</defs>
</svg>
