<svg width="22" height="20" viewBox="0 0 22 20" fill="none" xmlns="http://www.w3.org/2000/svg">
<path d="M11.4507 1.09278L13.786 5.95393C14.0047 6.40909 14.4377 6.72368 14.9382 6.79099L20.2831 7.50987C20.6986 7.56577 20.865 8.07763 20.5616 8.36713L16.66 12.0904C16.2947 12.439 16.1293 12.948 16.22 13.4448L17.1879 18.7502C17.2632 19.1627 16.8278 19.4791 16.4587 19.28L11.7121 16.72C11.2676 16.4802 10.7324 16.4802 10.2879 16.72L5.5413 19.28C5.17222 19.4791 4.7368 19.1627 4.81207 18.7502L5.78004 13.4448C5.87067 12.948 5.70528 12.439 5.33997 12.0904L1.4384 8.36713C1.13504 8.07763 1.30135 7.56577 1.71694 7.50987L7.06184 6.79099C7.56229 6.72368 7.99529 6.40909 8.21396 5.95393L10.5493 1.09278C10.7309 0.7148 11.2691 0.714799 11.4507 1.09278Z" fill="#E9E9E9" stroke="#E9E9E9"/>
</svg>
