<svg width="18" height="18" viewBox="0 0 18 18" fill="none" xmlns="http://www.w3.org/2000/svg">
<path d="M4.72944 17C4.50549 16.9997 4.28733 16.9286 4.10593 16.797C3.94959 16.6781 3.82666 16.5206 3.74914 16.3399C3.67162 16.1592 3.64215 15.9615 3.66361 15.766L4.05264 11.3908L1.26552 8.10006C1.13961 7.94992 1.05435 7.76982 1.01795 7.57709C0.981553 7.38436 0.995235 7.18549 1.05768 6.99959C1.11523 6.81842 1.21862 6.65528 1.35778 6.52608C1.49693 6.39689 1.66711 6.30603 1.85172 6.26239L5.9125 5.30081L8.04414 1.56135C8.13892 1.39115 8.27729 1.24939 8.44498 1.15071C8.61267 1.05203 8.8036 1 8.99805 1C9.1925 1 9.38342 1.05203 9.55111 1.15071C9.7188 1.24939 9.85718 1.39115 9.95196 1.56135L12.0836 5.32752L16.1444 6.2891C16.329 6.33274 16.4992 6.4236 16.6383 6.55279C16.7775 6.68199 16.8809 6.84513 16.9384 7.0263C17.0009 7.2122 17.0145 7.41107 16.9781 7.6038C16.9417 7.79653 16.8565 7.97663 16.7306 8.12677L13.9594 11.3908L14.3485 15.766C14.367 15.9639 14.3334 16.1633 14.2511 16.3442C14.1688 16.5251 14.0407 16.6812 13.8795 16.797C13.7271 16.9075 13.5482 16.9756 13.361 16.9944C13.1738 17.0131 12.9849 16.9819 12.8137 16.9038L8.99272 15.173L5.17708 16.9038C5.03657 16.968 4.88384 17.0008 4.72944 17ZM9.01936 2.04214L6.72785 6.01131C6.69167 6.07528 6.6427 6.13107 6.58401 6.1752C6.52532 6.21932 6.45818 6.25082 6.38679 6.26773L2.1235 7.27738C2.09153 7.3308 2.0862 7.36286 2.1235 7.38957L5.02787 10.8566C5.07284 10.9103 5.10681 10.9724 5.12784 11.0393C5.14887 11.1063 5.15655 11.1767 5.15043 11.2466L4.74009 15.8408C4.69213 15.9316 4.72944 15.9316 4.72944 15.9316L8.7689 14.1046C8.8376 14.0736 8.91207 14.0576 8.98739 14.0576C9.06271 14.0576 9.13718 14.0736 9.20588 14.1046L13.256 15.9316C13.256 15.9316 13.304 15.9316 13.2986 15.8621L12.8883 11.2679C12.8822 11.198 12.8899 11.1276 12.9109 11.0607C12.9319 10.9938 12.9659 10.9317 13.0109 10.878L15.9206 7.41093C15.9266 7.39941 15.9298 7.38657 15.9298 7.37354C15.9298 7.36051 15.9266 7.34767 15.9206 7.33615L11.604 6.26773C11.5326 6.25082 11.4654 6.21932 11.4068 6.1752C11.3481 6.13107 11.2991 6.07528 11.2629 6.01131L9.01936 2.04214Z" fill="white" stroke="white"/>
</svg>
