<svg width="23" height="20" viewBox="0 0 23 20" fill="none" xmlns="http://www.w3.org/2000/svg">
<path d="M6.45572 0.000244141C7.05976 -0.00560381 7.97744 0.146443 8.84284 0.561647C9.3888 0.818957 9.6734 1.16401 9.43527 1.67278C9.43527 1.67278 8.76537 1.90085 8.22522 1.67278C5.25729 0.409624 2.62513 2.86576 2.06756 6.07044C1.71907 8.08798 2.35215 9.78973 3.50796 11.3687C4.70442 13.0003 6.18548 14.3394 7.81175 15.5149C8.92109 16.3102 10.0943 17.0178 11.2327 17.7663C11.4069 17.8774 11.5463 17.8891 11.7322 17.778C14.2878 16.281 15.4902 14.857 17.4766 12.623C18.4175 11.5646 19.2306 10.4125 19.6081 9.01486C20.067 7.3248 19.8056 5.72247 18.8705 4.26048C17.9761 2.85697 16.9537 2.78922 16.0708 2.80737C14.6479 2.83661 13.7768 3.33065 12.9114 4.50024C12.772 4.68738 12.6617 4.89206 12.5513 5.09673C12.2783 5.59966 11.744 5.79264 11.2445 5.54703C10.7682 5.31311 10.5591 4.7634 10.7856 4.26048C11.2038 3.3365 11.5347 2.64362 12.342 2.04128C15.1938 -0.0990651 21.0309 -0.514352 22.634 4.91254C23.3832 7.45055 22.8837 9.77804 21.4549 11.9476C20.241 13.7897 18.6728 15.281 16.9537 16.6318C15.4378 17.819 13.8289 18.8599 12.1504 19.7956C11.6973 20.047 11.2966 20.0529 10.8436 19.7956C8.03245 18.2225 5.39558 16.4038 3.1769 14.0295C1.91655 12.6845 0.813011 11.2166 0.336748 9.40377C-0.429918 6.47979 0.0986169 3.82483 2.31149 1.67278C3.49053 0.514887 4.47517 0.000244141 6.45572 0.000244141Z" fill="#00B2FF"/>
</svg>
